<?xml version="1.0" encoding="UTF-8"?>
<svg xmlns="http://www.w3.org/2000/svg" xml:space="preserve" version="1.1" style="shape-rendering:geometricPrecision; text-rendering:geometricPrecision; image-rendering:optimizeQuality; fill-rule:evenodd; clip-rule:evenodd" viewBox="0 0 2935 1600">
  <path fill="#FFFFFF" d="M804 1060c71,-18 140,-44 207,-75 119,-56 182,-102 256,-208 -6,79 -12,179 30,249 45,74 132,53 206,-2 66,-49 111,-108 147,-167 8,-13 15,-26 22,-38 28,-51 47,-99 68,-153l-9 -26c-12,62 -38,122 -69,178 -27,49 -64,102 -106,145 -58,60 -155,122 -189,5 -11,-39 -13,-83 -13,-119 0,-40 1,-73 2,-112 3,-74 3,-149 6,-223l5 -168 1 -56 -94 39 -1 102c-2,105 -6,199 -58,288 -65,111 -220,202 -370,261 -134,53 -299,77 -425,72 -109,-4 -263,-31 -330,-125 -44,-61 -44,-134 -19,-203 17,-48 45,-91 76,-130 142,-179 394,-283 615,-321 103,-18 244,-23 343,9l0 87 12 -1c27,-122 54,-244 78,-366l-87 49 -3 214c-116,-39 -226,-52 -348,-46 -136,7 -279,44 -402,102 -151,71 -335,211 -355,390 -5,46 2,83 19,125 37,92 114,158 203,199 175,81 398,75 581,28z"/>
  <path fill="#FFFFFF" d="M1741 665l17 -45c-2,0 -36,-3 -38,-3 -50,-3 -92,-6 -146,-6 -55,1 -106,5 -164,12 -267,34 -510,152 -615,298 -38,53 -60,110 -66,168 -21,236 262,448 654,500 179,23 415,14 621,-62 212,-79 323,-176 377,-274 27,-49 48,-110 42,-172 -14,-143 -94,-221 -232,-332 -82,-66 -168,-130 -253,-195 -38,-29 -79,-58 -116,-88 -86,-69 -231,-175 -237,-263 -3,-42 25,-86 85,-113 104,-47 227,-23 311,31 14,9 25,18 37,28l35 31 4 -2 -9 -27 -23 -69c-14,-4 -27,-7 -42,-10 -130,-25 -263,-23 -375,35 -50,26 -82,61 -94,91 -33,85 52,158 137,234 156,137 341,257 500,393 20,17 42,33 61,51 61,58 105,126 124,192 44,158 -36,308 -215,404 -215,116 -538,123 -795,55 -195,-52 -412,-157 -492,-339 -36,-82 -36,-164 -11,-230 24,-64 74,-135 160,-190 175,-111 420,-146 669,-116 25,3 70,11 89,13z"/>
  <path fill="#FFFFFF" fill-rule="nonzero" d="M2241 81c-13,0 -24,0 -24,0l0 117c0,0 10,0 13,0l34 0c25,0 47,-19 47,-55 0,-40 -21,-62 -70,-62l0 0zm10 114l-21 0 0 -110c31,0 66,-1 66,58 0,27 -15,52 -45,52zm156 -109l0 -4 -84 0 0 118 84 0 0 -4 -73 0 0 -52 66 0 0 -5 -66 0 0 -52 73 0zm13 19c0,-10 10,-18 23,-18 26,0 35,20 37,29l13 0c-2,-8 -10,-35 -49,-35 -12,0 -21,3 -27,9 -8,8 -8,18 -8,21 1,34 71,28 71,63 0,12 -8,19 -25,19l-1 0c-24,0 -32,-20 -35,-28l-14 0c4,16 19,33 48,33l2 0c35,-1 37,-26 37,-31 -1,-35 -72,-28 -72,-63zm96 94l0 -118 -11 0 0 118 11 0zm68 -42l33 0c-1,2 -1,3 -2,5 -7,13 -17,23 -28,27 -5,2 -10,3 -15,3 -35,0 -39,-46 -25,-73 7,-13 17,-23 28,-28 5,-2 10,-3 15,-3 4,0 8,1 12,3l3 2c0,0 0,0 0,0 0,0 0,0 0,0 0,0 1,0 1,1 11,7 17,21 16,37l11 0c-3,-17 -12,-32 -26,-41l0 0 0 0 0 0 0 0c-8,-5 -17,-8 -27,-8 -30,0 -54,26 -54,59 0,30 23,59 54,59 25,0 47,-19 53,-46l-50 0 0 4zm138 -76l0 109 -66 -109 -11 0 0 118 11 0 0 -108 66 108 0 0 11 0 0 -118 -11 0zm111 5l0 -4 -84 0 0 118 84 0 0 -4 -73 0 0 -52 66 0 0 -5 -66 0 0 -52 73 0zm32 -4c-13,0 -24,0 -24,0l0 117c0,0 10,0 13,0l34 0c25,0 47,-19 47,-55 0,-40 -21,-62 -70,-62l0 0zm10 114l-21 0 0 -110c31,0 66,-1 66,58 0,27 -15,52 -45,52zm-607 89c17,-3 33,-12 33,-27 0,-20 -23,-28 -46,-28 -22,0 -29,0 -29,0l0 0 -9 0 0 118c0,0 10,0 12,0l26 0c24,0 52,-10 52,-31 0,-19 -19,-28 -40,-31l0 0zm-38 -52l32 0c10,0 19,5 23,14 5,13 -2,28 -17,35 -4,2 -8,3 -12,3l-26 0 0 -51zm22 111l-22 0 0 -56 25 0c5,0 11,0 16,1 39,7 21,55 -19,55zm144 -115l-40 64 0 0 0 0 -40 -64 -15 0 46 69 0 49 11 0 0 -49 46 -69 -9 0zm116 0l-16 0 -49 118 10 0 16 -43 55 0 16 43 16 0 -49 -118zm-36 70l26 -68 25 68 -51 0zm104 43l0 -113 -11 0 0 118 77 0 0 -5 -66 0zm77 -90c0,-10 10,-18 23,-18 26,0 35,20 37,29l13 0c-2,-8 -10,-35 -49,-35 -12,0 -21,3 -27,9 -8,8 -8,18 -8,21 1,34 71,28 71,63 0,12 -8,19 -25,19l-1 0c-24,0 -32,-20 -35,-28l-14 0c4,16 19,33 48,33l2 0c35,-1 37,-26 37,-31 -1,-35 -72,-28 -72,-63zm161 -23c0,0 0,0 0,55 0,35 -9,54 -33,54 -23,0 -33,-18 -33,-54 0,-53 0,-55 0,-55l-13 0c0,0 1,35 1,65 0,35 24,53 45,53l0 0c21,0 45,-18 45,-53 0,-29 1,-65 1,-65l-13 0zm-589 171c0,-10 10,-18 23,-18 26,0 35,20 37,29l13 0c-2,-8 -10,-35 -49,-35 -12,0 -21,3 -27,9 -8,8 -8,18 -8,21 1,34 71,28 71,63 0,12 -8,19 -25,19l-1 0c-24,0 -32,-20 -35,-28l-14 0c4,16 19,33 48,33l2 0c35,-1 37,-26 37,-31 -1,-35 -72,-28 -72,-63zm139 -23l-16 0 -49 118 10 0 16 -43 55 0 16 43 16 0 -49 -118zm-36 70l26 -68 25 68 -51 0zm177 -66l0 -4 -84 0 0 118 11 0 0 -56 66 0 0 -5 -66 0 0 -52 73 0zm19 113l0 -118 -11 0 0 118 11 0zm93 -118l0 109 -66 -109 -11 0 0 118 11 0 0 -108 66 108 0 0 11 0 0 -118 -11 0zm83 0l-16 0 -49 118 10 0 16 -43 55 0 16 43 16 0 -49 -118zm-36 70l26 -68 25 68 -51 0z"/>
</svg>
