<svg viewBox="0 0 650 375" fill="none" xmlns="http://www.w3.org/2000/svg">
    <path d="M231.228 353.6C231.228 360.1 229.328 365.2 225.428 369.1C221.528 373 216.028 374.9 208.828 374.9C203.028 374.9 198.228 373.7 194.428 371.4C190.628 369.1 187.828 365.9 185.828 362L192.128 358.4C193.628 361.1 195.828 363.4 198.528 365.3C201.228 367.2 204.728 368.1 208.928 368.1C214.028 368.1 217.828 366.8 220.128 364.1C222.528 361.4 223.628 357.9 223.628 353.7C223.628 351.3 223.328 349.4 222.528 347.7C221.828 346.1 220.828 344.7 219.528 343.6C218.228 342.5 216.628 341.5 214.828 340.7C213.028 339.9 210.928 339.1 208.628 338.4C204.828 337.3 201.628 336.1 199.028 334.9C196.328 333.6 194.228 332.2 192.528 330.6C190.828 329 189.628 327.1 188.828 325C188.028 322.9 187.628 320.4 187.628 317.5C187.628 314.5 188.128 311.7 189.128 309.2C190.128 306.7 191.528 304.5 193.328 302.7C195.128 300.9 197.428 299.5 200.028 298.5C202.728 297.5 205.728 297 209.128 297C214.728 297 219.128 297.9 222.328 299.8C225.528 301.6 228.028 304.1 229.928 307.1L223.728 311.3C222.228 308.7 220.328 306.8 218.028 305.6C215.628 304.4 212.628 303.8 208.828 303.8C204.228 303.8 200.828 305.1 198.428 307.8C196.028 310.5 194.928 313.8 194.928 317.7C194.928 319.8 195.328 321.7 196.228 323.2C197.028 324.7 198.228 326 199.828 327.1C201.328 328.2 203.228 329.1 205.328 330C207.428 330.8 209.728 331.7 212.328 332.5C215.628 333.5 218.428 334.7 220.828 335.9C223.228 337.1 225.128 338.6 226.628 340.3C228.128 342 229.228 344 230.028 346.2C230.928 347.9 231.228 350.6 231.228 353.6Z" fill="white"/>
    <path d="M260.628 303.7V374.1H253.628V303.7H235.328V297.3H278.728V303.7H260.628Z" fill="white"/>
    <path d="M329.527 297.3V352.7C329.527 356.2 328.927 359.2 327.827 362C326.727 364.7 325.127 367 323.127 369C321.127 370.9 318.827 372.4 316.127 373.4C313.427 374.4 310.527 374.9 307.327 374.9C304.027 374.9 301.027 374.4 298.327 373.3C295.627 372.2 293.327 370.7 291.327 368.8C289.327 366.9 287.827 364.6 286.827 361.8C285.727 359 285.227 356 285.227 352.7V297.4H292.227V352.7C292.227 354.9 292.627 356.9 293.327 358.8C294.027 360.7 295.127 362.3 296.527 363.7C297.927 365.1 299.527 366.1 301.327 367C303.127 367.9 305.227 368.2 307.427 368.2C311.727 368.2 315.227 366.9 318.127 364.2C321.027 361.5 322.427 357.7 322.427 352.9V297.5H329.527V297.3Z" fill="white"/>
    <path d="M364.031 297.3C374.531 297.3 381.431 301.3 384.631 309.4C385.531 311.9 386.031 315 386.231 318.8C386.431 322.6 386.531 326.9 386.531 331.7V344.4C386.531 347.9 386.431 351.1 386.231 353.9C386.031 356.7 385.531 359.2 384.731 361.2C383.831 363.7 382.531 365.8 381.031 367.4C379.531 369 377.831 370.3 375.831 371.3C373.931 372.3 371.731 373 369.431 373.4C367.131 373.8 364.731 374 362.231 374H342.531V297.2H364.031V297.3ZM379.531 323.4C379.531 321.7 379.431 319.9 379.331 318.1C379.131 316.3 378.831 314.6 378.331 313.2C377.331 310.1 375.631 307.7 372.931 306.1C370.331 304.5 367.031 303.7 362.931 303.7H349.731V367.7H363.031C371.031 367.7 376.131 364.6 378.231 358.3C378.631 357.1 379.031 355.8 379.231 354.2C379.431 352.6 379.531 351.1 379.531 349.7V323.4Z" fill="white"/>
    <path d="M399.93 374.1V297.3H407.13V374.1H399.93Z" fill="white"/>
    <path d="M464.127 352.1C464.127 355.5 463.627 358.6 462.527 361.3C461.427 364.1 459.927 366.4 458.027 368.4C456.027 370.4 453.727 371.9 451.027 373C448.327 374.1 445.327 374.7 442.027 374.7C438.227 374.7 434.927 374.1 432.127 372.9C429.327 371.7 427.027 370 425.127 367.9C423.327 365.8 421.927 363.3 421.027 360.4C420.127 357.5 419.727 354.5 419.727 351.2V318.9C419.727 316.1 420.227 313.4 421.027 310.7C421.927 308.1 423.227 305.7 425.027 303.6C426.827 301.5 429.127 299.8 431.927 298.6C434.727 297.4 438.027 296.7 441.927 296.7C445.527 296.7 448.727 297.3 451.427 298.5C454.127 299.7 456.427 301.3 458.327 303.4C460.227 305.4 461.627 307.8 462.527 310.5C463.427 313.2 463.927 316 463.927 318.9V352.1H464.127ZM456.827 319.1C456.827 317.4 456.527 315.6 456.027 313.8C455.427 312 454.627 310.3 453.427 308.8C452.227 307.3 450.727 306 448.827 305C446.927 304 444.627 303.5 442.027 303.5C439.427 303.5 437.127 304 435.127 304.9C433.227 305.8 431.627 307 430.327 308.5C429.027 310 428.127 311.6 427.527 313.5C426.927 315.4 426.627 317.2 426.627 319.1V351.5C426.627 353.9 426.927 356.2 427.527 358.2C428.127 360.3 429.127 362.1 430.427 363.6C431.727 365.1 433.327 366.3 435.227 367.1C437.127 367.9 439.427 368.4 442.027 368.4C444.127 368.4 446.027 368 447.827 367.2C449.627 366.4 451.227 365.3 452.527 363.9C453.827 362.5 454.927 360.8 455.627 358.9C456.327 357 456.727 354.9 456.727 352.7V319.1H456.827Z" fill="white"/>
    <path d="M503.931 16C496.131 16.5 486.131 17.5 473.931 19.1C461.731 20.7 449.931 22.6 438.731 24.6C430.631 26 422.331 27.8 413.931 29.6C416.131 25.9 417.131 22.6 416.531 20C415.931 17.2 412.431 15.4 406.131 14.5C403.631 15.6 401.631 17.5 400.231 20.1C398.831 22.8 396.631 26.1 393.631 30.2C392.631 31.5 391.531 33.1 390.231 34.9C383.431 36.5 376.631 38.1 369.931 39.8C358.531 42.7 347.431 45.6 336.531 48.6C325.631 51.6 317.531 53.9 312.031 55.4C315.631 50.1 318.831 45.5 321.631 41.6C324.431 37.7 327.431 33.7 330.431 29.5C333.531 25.3 337.631 20 343.031 13.5C348.331 7 349.731 2.5 347.131 0C343.531 0.7 339.531 3.10001 335.131 7.20001C330.731 11.3 326.131 16.3 321.431 22.2C316.731 28.1 312.331 33.5 308.131 38.6C304.031 43.7 298.731 50.4 292.231 58.7C288.031 60.2 284.031 61.5 280.131 62.6C276.231 63.7 244.731 71.1 243.531 72.3C242.331 73.5 242.031 75.2 242.731 77.3C243.431 79.4 244.631 80.3 246.331 80C248.031 79.7 280.431 72.6 285.531 71.1C282.931 76.7 278.531 83.4 272.431 90.9C266.331 98.5 262.531 104.1 261.031 107.9C259.631 111.6 258.531 115.1 257.831 118.3C257.131 121.5 257.031 124.1 257.331 126.1C257.231 126.3 257.231 126.5 257.231 126.6C257.531 128.4 258.331 130.4 259.531 132.5C260.731 134.9 262.631 136.6 265.331 137.8C268.031 138.9 271.531 139.4 275.931 139.2C277.531 139.1 279.231 138.9 280.931 138.6C283.631 138.2 286.531 137.5 289.531 136.6C294.231 135.2 298.331 133.4 301.831 131.4C305.431 129.3 323.731 117.4 332.931 111.2C329.931 116.4 327.231 120.5 324.731 123.4C322.231 126.3 321.731 128.8 323.031 131C324.331 133.2 326.431 134.1 329.231 133.6C332.731 132.9 336.131 131.5 339.331 129.5C342.531 127.5 346.031 125.1 349.831 122.4C353.631 119.7 356.931 117.3 359.731 115.3C362.531 113.3 365.831 110.9 369.731 108.2C373.531 105.5 376.831 103.2 379.631 101.2C382.431 99.2 383.831 98.8 384.031 99.9C384.231 101 382.731 103.5 379.431 107.3C376.231 111.1 375.131 114.6 376.131 117.7C377.231 120.8 379.331 122.6 382.431 123.2C385.531 123.8 388.631 123.8 391.431 123.3C393.431 123 396.331 122.2 400.231 121C404.131 119.7 407.931 118.2 411.531 116.4C414.031 115.1 418.231 112.5 423.831 108.6C424.231 109.1 424.531 109.7 425.031 110.1C426.931 111.8 429.431 113.1 432.531 114.1C435.631 115.1 441.431 115.3 449.831 114.8L454.431 114.1C461.931 112.6 468.231 110.6 473.331 108.2C478.331 105.8 482.431 103.3 485.631 100.8C488.831 98.3 491.531 94.7 493.831 90C492.431 88 491.031 87.4 489.431 88.1C487.831 88.8 485.731 90.1 483.031 91.9C480.331 93.7 476.831 95.6 472.331 97.5C467.831 99.4 461.931 100.8 454.531 101.5C447.131 102.2 442.331 102.1 440.031 101C437.731 99.9 436.631 98.7 436.831 97.5C437.031 96.2 439.631 94.5 444.631 92.2C449.631 89.9 453.931 86.8 457.531 82.8C461.131 78.8 462.831 74.5 462.431 69.8C462.131 65.1 460.531 62.1 457.631 60.7C454.731 59.3 451.531 58.8 448.031 59.2L444.131 60C440.731 61.5 437.631 63.7 434.631 66.7C431.631 69.7 428.831 73.2 426.031 77.1C423.231 81 421.331 84.7 420.331 88.1C419.431 91.1 419.431 95.3 420.131 100.3C417.631 102 414.731 103.9 411.131 106.2C406.931 108.9 402.731 111 398.531 112.4C394.331 113.8 391.831 114.1 391.131 113.2C390.431 112.3 390.531 111.1 391.431 109.4C392.331 107.7 393.531 105.1 395.131 101.6C396.631 98 397.031 94.8 396.231 91.8C395.431 88.9 393.731 87.1 391.031 86.5C388.331 85.9 385.331 86.3 381.931 87.7C378.531 89.1 374.931 91 371.231 93.5C367.531 96 360.731 101.1 350.631 108.8C352.031 105 354.231 101.6 357.231 98.5C360.231 95.4 365.731 89.1 373.731 79.7C381.731 70.3 389.731 60.8 397.731 51.3C400.731 47.7 403.331 44.6 405.531 41.7C414.431 39.6 423.231 37.7 431.931 36.2C441.931 34.5 451.231 32.8 460.031 31.2C468.731 29.5 476.231 28.1 482.331 27C488.531 25.9 493.831 25.1 498.231 24.7C502.731 24.3 506.931 24 510.831 23.9C514.731 23.8 518.931 22.7 523.331 20.4C518.131 16.9 511.631 15.6 503.931 16ZM436.331 81.2C437.331 79.1 439.431 76.9 442.731 74.5C445.931 72.1 447.931 71.8 448.531 73.4C449.131 75 448.431 77.1 446.431 79.5C444.431 81.9 440.131 84.8 433.631 88.1C434.331 85.6 435.331 83.3 436.331 81.2ZM380.331 48.5C374.431 56.6 367.731 65.1 360.231 74C352.631 82.9 346.231 89.6 340.931 94.1C335.631 98.6 306.331 119.2 298.731 123.3C291.131 127.3 283.031 129.8 280.131 129.7C277.231 129.6 275.031 128.5 273.631 126.4C272.231 124.2 272.031 121.5 272.931 118.3C273.831 115.1 275.531 111.5 278.131 107.5C280.731 103.6 283.631 98.9 286.931 93.4C290.231 87.9 293.031 83.5 295.531 80C298.031 76.5 300.131 73.8 301.831 71.8C303.531 69.8 305.231 68.2 306.831 67.1C308.431 66 310.631 65 313.231 64.3C315.931 63.5 319.331 62.7 323.431 61.7C327.631 60.8 334.631 59.1 344.431 56.7C354.331 54.3 363.731 52 372.831 49.5C375.531 48.8 378.331 48.1 381.131 47.3C380.931 47.7 380.631 48.1 380.331 48.5Z" fill="white"/>
    <path d="M618.027 166.4C603.727 172.9 595.827 174.5 594.127 171.2C592.527 167.9 592.727 162.4 594.727 154.7C596.727 147 595.927 141.6 592.127 138.3C588.327 135 584.327 134.3 580.127 136C575.827 137.7 570.427 141.2 563.827 146.6C557.227 152 545.327 161.8 528.027 175.9C538.027 161.5 543.627 151.5 544.727 146C545.827 140.4 545.427 135.5 543.627 131C541.827 126.6 538.027 123.8 532.227 122.7C529.327 123.3 525.627 122.9 524.027 125.2C521.127 129.4 524.027 135 523.027 139.9C522.127 144.2 525.627 158 505.527 176.5C505.427 176.6 505.427 176.6 505.327 176.7C504.627 177.2 504.027 177.6 503.227 178.2C499.627 180.8 494.827 183.5 488.927 186.2C482.927 188.9 475.027 190.8 465.027 191.8C455.127 192.8 448.527 192.4 445.427 190.8C442.227 189.2 440.827 187.4 441.127 185.6C441.427 183.8 444.827 181.2 451.527 177.9C458.227 174.6 463.927 170.1 468.727 164.3C473.527 158.5 475.627 152.2 475.127 145.3C474.627 138.5 472.327 134 468.427 131.9C464.527 129.8 460.127 129 455.427 129.6L450.227 130.7C445.727 132.8 441.527 136 437.527 140.4C433.627 144.8 429.727 149.8 426.027 155.5C422.327 161.2 419.827 166.6 418.527 171.5C417.527 175.5 417.427 180.7 418.027 187C417.527 187.4 417.027 187.7 416.527 188.2C413.627 191 409.127 193.3 403.027 195.1C396.927 196.9 391.727 196.5 387.427 194C383.127 191.5 380.727 189.3 380.327 187.6C379.927 185.9 380.127 183.6 381.027 180.8C381.927 178 383.827 174.6 386.727 170.5C389.627 166.4 391.327 161.7 392.027 156.1C392.727 150.5 391.127 146.8 387.227 145.1C383.327 143.3 378.927 141.8 373.927 140.5C369.727 141.2 366.527 142.5 364.127 144.5C361.827 146.5 360.127 149.6 359.227 153.9C358.227 158.2 357.827 162.7 357.927 167.4C358.027 172.2 355.727 177.1 351.027 182.2C346.327 187.3 342.027 191.9 337.927 196.1C333.827 200.2 329.727 203.9 325.527 207.1C321.327 210.3 317.027 212.8 312.627 214.5C308.227 216.2 304.627 216.1 301.927 214C299.227 212 298.327 208.9 299.327 204.7C300.327 200.6 303.027 196.9 307.527 193.8C312.027 190.7 316.027 186.3 319.727 180.8C323.427 175.3 324.027 169.8 321.627 164.3C319.227 158.9 316.427 155.5 313.327 154.2C310.227 152.9 307.027 153.3 303.827 155.5C300.627 157.7 297.527 162.7 294.627 170.5C291.727 178.3 287.527 185.5 282.027 192C276.527 198.5 273.627 203.1 273.527 205.8C273.327 208.5 273.427 211.1 273.827 213.6C274.127 215.6 275.227 218 276.527 220.5C270.027 223.2 261.527 225.1 250.927 226.2C240.027 227.3 232.927 227.1 229.527 225.5C226.127 223.9 224.527 222.2 224.827 220.3C225.127 218.5 228.927 215.8 236.327 212.5C243.627 209.1 250.027 204.5 255.327 198.6C260.627 192.7 263.027 186.4 262.627 179.5C262.127 172.6 259.727 168.2 255.527 166.1C251.227 164 246.527 163.3 241.327 164L235.627 165.2C230.627 167.3 226.027 170.6 221.627 175.1C217.327 179.5 213.027 184.7 208.927 190.4C204.827 196.2 202.027 201.6 200.527 206.6C199.327 210.9 199.127 216.7 200.027 223.8C198.127 225.6 195.427 227.7 191.727 230.5C187.527 233.6 182.527 236.4 176.627 238.8C170.727 241.2 164.627 243.4 158.327 245.4C152.027 247.4 146.327 248.7 141.527 249.3C136.627 249.9 133.327 248.7 131.427 245.6C129.627 242.6 129.527 238.5 131.127 233.3C132.827 228.2 135.527 222.9 139.427 217.6C143.327 212.3 147.927 208 153.427 204.8C158.927 201.6 165.227 197.6 172.527 193.1C179.727 188.5 186.427 182.7 192.627 175.5C198.727 168.3 205.127 160.7 211.827 152.7C218.527 144.7 224.227 136 228.927 126.7C233.627 117.3 236.227 110.4 236.727 105.9L234.927 100.8C233.127 98.8998 230.727 97.4998 228.027 96.5998C225.227 95.7998 221.727 95.2998 217.427 95.2998L212.727 96.4998C206.127 104.7 199.627 111.6 193.127 117C186.627 122.5 179.527 130 171.827 139.7C164.127 149.4 156.427 160.8 148.727 173.9C141.027 187 134.727 196.7 129.927 202.9C128.827 204.3 127.727 206 126.527 207.5C120.527 212.2 104.627 223.8 64.0274 243.3C46.4274 251.7 34.6274 253.2 31.2274 253.5C27.4274 253.8 24.4273 253.6 22.1273 253C19.8273 252.3 18.5273 250.4 18.3273 247.1C18.2273 245.7 19.2273 241.4 21.3273 234C22.0273 231.7 23.0273 228.4 24.3273 224C44.6273 220.1 60.7273 206.7 77.1273 201.2C96.5273 194.8 106.027 189.5 105.727 185.4C105.827 183 105.527 181.2 104.727 179.9C103.927 178.7 102.427 178.2 100.227 178.3C92.6274 180 84.9274 181.6 77.0274 183.2C69.1274 184.8 32.8274 195.9 30.2274 195.6C32.5274 188.7 35.2273 182 38.1273 175.4C41.6273 167.6 45.5273 159.8 49.8273 152C57.2273 150 67.7274 147.2 81.2274 143.6C94.7274 140 136.127 127.1 138.427 126.2C141.327 125.3 144.327 124.6 147.427 124.1C150.527 123.6 153.627 122.9 156.727 121.9C161.127 120.5 164.427 118.4 166.627 115.7C168.827 113 169.227 109.4 167.727 104.8C166.327 100.6 162.727 98.5998 156.927 98.7998C153.527 98.9998 148.627 100.1 142.127 102.2C133.827 104.9 89.6273 119.3 66.6273 125.6C43.7273 131.9 29.6274 137.1 24.2274 141.4C21.0274 144.1 18.5273 146.8 16.6273 149.6C14.8273 152.4 14.0274 155.4 14.2274 158.4C14.5274 161.5 16.7273 162.8 21.0273 162.5C23.0273 162.3 24.7273 162.1 25.8273 161.8L14.7274 196.5C13.1274 197.3 10.8273 196.4 6.52735 198.6C3.12735 200.9 1.22735 203.5 1.02735 206.4C0.727349 209.3 0.627337 211.5 0.827337 213C1.12734 216.2 1.72732 218.9 2.62732 221C3.52732 223.1 4.92732 224.2 6.62732 224.4C6.42732 226 5.12732 231.7 2.62732 241.5C0.727325 249.4 -0.172651 254.5 0.0273489 256.9C0.627349 263.6 2.62734 268.6 6.32734 272C9.92734 275.4 16.0273 276.7 24.5273 276C35.4273 275.1 48.1273 271.8 62.6273 266C71.7273 262.4 92.8273 247.8 109.127 236.1C108.027 239.1 107.527 241.9 107.627 244.2C108.727 247.8 110.127 250.9 111.927 253.7C113.727 256.4 116.127 258.7 119.127 260.6C122.127 262.5 128.427 263.2 137.927 262.5L155.227 259.8C174.227 253.6 187.327 248.2 194.327 243.6C198.627 240.8 201.827 237.9 204.227 234.8C205.227 236.4 206.327 237.9 207.527 238.9C210.327 241.4 214.027 243.3 218.527 244.7C223.127 246.1 231.627 246.5 243.927 245.7L250.727 244.6C261.827 242.3 271.027 239.4 278.427 235.9C281.727 234.3 284.527 232.7 287.227 231.1C287.627 231.3 288.027 231.7 288.527 231.8C292.627 233.5 299.027 234.6 307.627 235.1L319.127 233.3C332.427 225.7 341.527 219.4 346.427 214.3C351.227 209.2 355.027 205.3 357.827 202.6C360.527 199.9 362.827 198.7 364.427 199C366.127 199.3 367.927 200.7 369.927 203.3C371.927 205.9 375.927 208.3 381.927 210.5C387.927 212.7 394.127 213.2 400.527 212.1C406.927 210.9 412.727 208.6 417.927 205.1C419.727 203.9 421.427 202.5 423.227 201.2C423.927 202.1 424.527 203.2 425.227 203.9C427.827 206.4 431.227 208.4 435.427 209.9C439.627 211.4 447.427 211.8 458.727 211.2L464.927 210.2C475.127 208.1 483.527 205.3 490.227 201.9C492.927 200.5 495.227 199.1 497.527 197.7C498.627 202 500.627 204.8 503.727 206C506.927 207.3 511.127 207.5 516.327 206.7C519.927 204.4 525.227 200.6 532.227 195.2C539.227 189.8 547.327 182.7 556.427 173.7C565.527 164.7 569.727 162.9 569.027 168.1C568.327 173.3 569.327 178 572.027 182.1C574.727 186.2 580.027 188.7 587.827 189.6C595.627 190.5 606.827 187.3 621.327 180C635.827 172.7 644.327 167.4 646.827 164.2C649.327 161 650.327 156.1 649.727 149.5C642.927 154.3 632.327 159.9 618.027 166.4ZM159.327 178.1C162.627 173.8 166.827 167.8 172.027 159.9C177.227 152.1 182.327 145.8 187.427 140.9C192.527 136.1 196.627 133.1 200.027 131.9C203.327 130.7 205.427 131.5 206.127 134.3C206.927 137.1 205.827 141.2 202.827 146.5C199.827 151.8 195.227 158 189.227 164.9C183.127 171.8 177.127 177.6 171.327 182.3C165.527 187 159.127 190.2 152.227 192C153.727 187 156.127 182.4 159.327 178.1ZM224.127 196.7C225.627 193.6 228.727 190.4 233.527 186.9C238.327 183.4 241.127 182.9 242.027 185.3C242.927 187.7 241.927 190.7 238.927 194.3C235.927 197.8 229.727 202.1 220.027 207C221.227 203.2 222.627 199.8 224.127 196.7ZM440.027 162C441.327 159 444.127 155.7 448.527 152.3C452.827 148.9 455.427 148.4 456.327 150.8C457.227 153.2 456.227 156.2 453.627 159.7C450.927 163.2 445.227 167.3 436.427 172.1C437.427 168.4 438.727 165 440.027 162Z" fill="white"/>
</svg>
