<svg viewBox="0 0 1541 355" fill="none" xmlns="http://www.w3.org/2000/svg">
    <path d="M3.32031 334.981V315.881H9.68987V334.981H3.32031ZM3.32031 354.081V347.711H28.7885V354.081H3.32031ZM28.7885 347.721V341.351H9.68987V334.981H28.7885V315.881H35.1581V347.721H28.7885Z" fill="black"/>
    <path d="M41.5156 341.351V322.251H47.8852V341.351H41.5156ZM47.8852 322.251V315.881H66.9838V322.251H47.8852ZM47.8852 347.721V341.351H66.9838V347.721H47.8852ZM66.9838 341.351V322.251H73.3533V341.351H66.9838Z" fill="black"/>
    <path d="M79.7266 341.351V315.881H86.0961V341.351H79.7266ZM86.0961 347.721V341.351H105.195V315.881H111.564V347.721H86.0961Z" fill="black"/>
    <path d="M117.922 347.721V315.881H124.291V322.251H130.661V328.621H124.291V347.721H117.922ZM130.661 322.251V315.881H143.4V322.251H130.661ZM143.39 328.611V322.241H149.76V328.611H143.39Z" fill="black"/>
    <path d="M175.23 354.081V315.881H181.6V322.251H187.97V328.621H181.6V334.991H200.699V341.361H181.6V354.091H175.23V354.081ZM187.96 322.251V315.881H200.699V322.251H187.96ZM200.699 334.981V322.241H207.068V334.981H200.699Z" fill="black"/>
    <path d="M213.426 341.351V322.251H219.795V328.621H238.894V322.251H245.264V334.991H219.795V341.361H213.426V341.351ZM219.795 322.251V315.881H238.894V322.251H219.795ZM219.795 347.721V341.351H245.264V347.721H219.795Z" fill="black"/>
    <path d="M251.629 347.721V315.881H257.998V322.251H264.368V328.621H257.998V347.721H251.629ZM264.358 322.251V315.881H277.097V322.251H264.358ZM277.097 328.611V322.241H283.467V328.611H277.097Z" fill="black"/>
    <path d="M289.832 328.611V322.241H296.202V328.611H289.832ZM289.832 347.721V341.351H315.3V347.721H289.832ZM296.202 322.251V315.881H321.67V322.251H296.202ZM296.202 334.981V328.611H315.3V334.981H296.202ZM315.3 341.351V334.981H321.67V341.351H315.3Z" fill="black"/>
    <path d="M328.035 341.351V322.251H334.405V341.351H328.035ZM334.405 322.251V315.881H353.503V322.251H334.405ZM334.405 347.721V341.351H353.503V347.721H334.405ZM353.503 341.351V322.251H359.873V341.351H353.503Z" fill="black"/>
    <path d="M366.234 347.721V315.881H391.703V322.251H372.604V347.721H366.234ZM391.713 347.721V322.251H398.082V347.721H391.713Z" fill="black"/>
    <path d="M404.441 341.351V334.981H410.811V341.351H404.441ZM410.811 322.251V315.881H429.91V322.251H410.811ZM410.811 347.721V341.351H429.91V334.981H410.811V328.611H429.91V322.241H436.279V347.711H410.811V347.721Z" fill="black"/>
    <path d="M442.648 341.35V303.15H449.018V341.35H442.648ZM449.008 347.72V341.35H455.378V347.72H449.008Z" fill="black"/>
    <path d="M480.844 341.351V334.981H487.213V341.351H480.844ZM487.213 322.251V315.881H506.312V322.251H487.213ZM487.213 347.721V341.351H506.312V334.981H487.213V328.611H506.312V322.241H512.682V347.711H487.213V347.721Z" fill="black"/>
    <path d="M519.047 334.98V322.24H525.416V334.98H519.047ZM519.047 354.08V347.71H544.515V354.08H519.047ZM544.525 347.72V341.35H525.426V334.98H544.525V322.24H525.426V315.87H550.895V347.71H544.525V347.72Z" fill="black"/>
    <path d="M557.25 341.351V322.251H563.62V328.621H582.718V322.251H589.088V334.991H563.62V341.361H557.25V341.351ZM563.62 322.251V315.881H582.718V322.251H563.62ZM563.62 347.721V341.351H589.088V347.721H563.62Z" fill="black"/>
    <path d="M595.457 347.721V315.881H620.925V322.251H601.827V347.721H595.457ZM620.925 347.721V322.251H627.295V347.721H620.925Z" fill="black"/>
    <path d="M640.022 341.35V322.25H633.652V315.88H640.022V303.15H646.391V315.88H652.761V322.25H646.391V341.35H640.022ZM646.381 347.72V341.35H652.751V347.72H646.381Z" fill="black"/>
    <path d="M1518.18 46.7002L1540.98 24.0702L1516.3 24.1202L1537.7 2.87023L1468.67 3.00023L1424.43 46.8702L1406.86 46.9202L1429.69 24.2902L1404.94 24.3402L1426.39 3.07024L1357.39 3.20024L1300.69 59.3902C1300.09 57.9402 1299.21 56.5902 1298.06 55.3402C1301.91 48.2802 1302.84 42.1002 1300.74 36.9402C1299.96 35.0402 1298.74 33.3102 1297.09 31.7302C1300.59 25.1702 1301.39 19.5402 1299.49 14.8902C1297.54 10.1102 1292.43 6.41025 1284.2 3.83025C1275.94 1.25025 1264.03 -0.0197675 1248.43 0.000232546C1230.64 0.0302325 1214.04 1.65025 1198.72 4.83025C1183.41 8.03025 1168.42 13.2102 1153.75 20.3702C1139.51 27.3302 1125.24 36.3602 1110.9 47.4502H1110L1132.88 24.8202L1108.1 24.8702L1129.6 3.62023L972.66 3.90023L951.112 25.1702H951.092L935.523 25.2002L957.071 3.93026L784.943 4.26024L745.956 42.6302L767.005 42.6102L742.657 66.5902L765.605 66.5702L742.657 89.1502H749.916L660.022 177.7H681.021L656.723 201.63H679.641L656.723 224.21H679.641L656.723 246.79H729.597L799.642 177.71H817.511L793.263 201.64H816.141L793.263 224.22H816.141L793.263 246.8H957.381L997.628 207.03L974.8 207.06L997.628 184.46H974.83L984.189 175.15L1010.39 175.12C1009.41 177.87 1008.86 180.43 1008.74 182.78C1008.52 186.86 1009.69 190.36 1012.27 193.24C1010.09 197.75 1008.94 201.75 1008.74 205.35C1008.52 209.43 1009.69 212.93 1012.27 215.81C1010.09 220.32 1008.94 224.32 1008.74 227.92C1008.31 235.8 1013.1 241.49 1022.93 244.76C1032.29 247.89 1046.82 249.47 1066.17 249.47C1077.33 249.47 1089.1 248.69 1101.16 247.14C1113.27 245.59 1125.86 242.51 1138.58 238.03C1151.27 233.55 1164.23 227.29 1177.12 219.46C1183.73 215.43 1190.3 210.8 1196.83 205.57L1178.02 224.22H1200.79L1178.02 246.8H1250.87L1296.42 201.62H1312.11L1289.33 224.22H1312.08L1289.33 246.8L1362.18 246.77L1541 69.2702L1518.2 69.3202L1541 46.6902L1518.18 46.7002ZM1421.73 49.5802L1404.06 67.1002L1386.49 67.1302L1404.13 49.6102L1421.73 49.5802ZM1402.2 27.0503L1423.1 27.0002L1382.63 67.1202L1361.76 67.1502L1402.2 27.0503ZM1322.8 105.77L1365.09 105.74L1343.69 126.99H1322.25L1249.74 198.9H1184.54L1205.96 177.68H1250.28L1322.8 105.77ZM1207.5 128.79C1207.5 128.79 1220.09 115.98 1222.77 112.6H1222.79L1246.99 112.55L1230.5 128.77L1207.5 128.79ZM1298.22 60.5402C1298.34 60.8402 1298.47 61.1703 1298.55 61.4903L1249.75 109.84L1224.9 109.87L1227.23 107.57L1206.13 107.6C1206.13 107.6 1221.12 92.1102 1222.77 90.0302H1222.79L1267.84 89.9502L1279.33 78.5602C1285.78 72.4502 1294.1 61.8702 1296.6 57.7902C1297.3 58.6602 1297.85 59.5602 1298.22 60.5402ZM1220.41 66.1002C1219.91 66.7002 1213.85 73.4602 1212.53 74.8102C1208.85 75.2102 1205.25 76.0402 1201.74 77.3402C1196.73 79.1702 1191 82.4202 1184.73 87.0302C1178.5 91.6102 1171.12 97.8402 1162.83 105.58C1162.1 106.26 1141.73 125.53 1138.65 128.26C1132.52 133.72 1127.09 138.07 1122.31 141.32C1117.53 144.57 1113.07 146.9 1108.97 148.28C1105.79 149.33 1102.59 150.01 1099.38 150.26C1101.28 148.08 1103.41 145.75 1105.79 143.25C1113.05 135.57 1122.71 125.76 1134.5 114.12C1146.34 102.38 1176.51 73.1102 1186.32 66.6402C1192.62 62.5002 1197.91 59.0603 1202.66 57.3003C1205.59 56.2203 1208.59 55.5002 1211.65 55.0702C1211.25 55.5002 1210.8 55.9202 1210.37 56.3502L1200.48 66.1402L1220.41 66.1002ZM1164.69 107.54C1172.9 99.8802 1180.18 93.7202 1186.33 89.1902C1192.41 84.7602 1197.89 81.6102 1202.67 79.8502C1204.85 79.0502 1207.08 78.4502 1209.33 78.0202L1197.22 90.0302L1219.29 90.0002C1217.56 92.0502 1215.36 94.4802 1212.53 97.3602C1208.85 97.7602 1205.25 98.5902 1201.74 99.8902C1197.51 101.44 1192.75 103.99 1187.57 107.57H1187.55L1164.61 107.6L1164.69 107.54ZM1202.67 102.44C1204.85 101.64 1207.08 101.04 1209.33 100.61L1202.3 107.59H1192.49C1196.16 105.29 1199.56 103.59 1202.67 102.44ZM1267.29 66.0202L1278.38 55.0302C1280.08 53.3502 1293.1 38.4102 1295.67 34.1602C1296.82 35.3402 1297.67 36.5903 1298.22 37.9603C1299.92 42.1603 1299.46 48.3802 1294.67 55.7802C1289.59 63.6202 1278.93 75.1502 1277.43 76.6502L1266.74 87.2402L1203.79 87.3202C1203.79 87.3202 1223.59 66.4002 1223.84 66.1002L1267.29 66.0202ZM1110.45 113.82L1110.48 113.79C1116.86 107.21 1124.57 99.4502 1133.56 90.5402C1144.42 79.8002 1153.78 70.7402 1161.67 63.3302L1161.69 63.3003C1162.39 62.6503 1163.09 62.0002 1163.77 61.3702C1164.07 61.0902 1164.37 60.8202 1164.65 60.5702C1165.6 59.6702 1166.55 58.8203 1167.48 57.9903L1167.5 57.9603C1174.28 51.8003 1180.29 46.8002 1185.54 42.9402C1191.75 38.3802 1197.3 35.2102 1202.21 33.4002C1207.12 31.6202 1212.17 30.7202 1217.35 30.7002C1224.03 30.7002 1227.06 32.4802 1226.41 36.0602C1226.03 38.0902 1215.92 50.6802 1214.6 52.0302C1210.22 52.3102 1205.91 53.2102 1201.76 54.7302C1196.75 56.5602 1191.02 59.8102 1184.75 64.4402C1178.77 68.7902 1171.74 74.7302 1163.88 82.0102C1163.53 82.3402 1163.2 82.6403 1162.85 82.9603C1162.22 83.5403 1161.6 84.1402 1160.95 84.7402C1159.97 85.6702 1158.95 86.6202 1157.92 87.5902C1150.69 94.4202 1142.2 102.66 1132.62 112.14C1120.81 123.8 1111.15 133.64 1103.84 141.32C1100.76 144.57 1098.06 147.58 1095.73 150.28C1091 150.2 1088 149.3 1086.79 147.63C1085.49 145.83 1086.36 142.67 1089.37 138.12C1091.2 135.32 1093.87 131.91 1097.35 127.88C1099.2 125.73 1101.33 123.4 1103.66 120.9C1103.68 120.87 1103.68 120.87 1103.71 120.85C1104.09 120.47 1104.46 120.07 1104.84 119.67C1106.57 117.85 1108.45 115.9 1110.45 113.82ZM1042.16 84.5402L1056.44 70.4202L998.888 70.4702L999.138 70.2202L1004.72 64.7103L1090.16 64.5802C1088.13 66.3602 1072.79 80.4202 1068.59 84.4802L1042.16 84.5402ZM1065.75 87.2202C1064.62 88.3502 1051.03 101.94 1046.13 107.12H1044.09L1059.75 91.6302L1034.98 91.6602L1039.43 87.2602L1065.75 87.2202ZM974.31 70.2802L1004.17 40.8003L1092.11 40.6702L1105.35 27.6102L1126.3 27.5602L1091.54 61.9002L1003.63 62.0302L995.318 70.2402L995.069 70.4902L974.1 70.5202L974.31 70.2802ZM1020.43 106.02L1032.22 94.3802L1053.13 94.3502L1019.88 127.24L937.513 127.29L923.974 140.65H903.025L938.063 106.06L1020.43 106.02ZM927.833 140.65L938.623 129.99L980.52 129.96H984.369L1020.99 129.93L1034.13 116.94H1037.06C1032.13 122.42 1027.85 127.5 1024.17 132.18C1022.92 133.76 1021.77 135.31 1020.69 136.81C1020.36 137.26 1019.09 139.06 1018.81 139.51C1016.31 143.21 1014.33 146.64 1012.93 149.8L984.999 149.83L994.309 140.62L927.833 140.65ZM1036.88 114.23L1041.36 109.83H1043.56C1042.18 111.33 1040.81 112.81 1039.51 114.23H1036.88ZM749.246 63.8402L770.845 42.5902L797.153 42.5402L775.584 63.7902L749.246 63.8402ZM749.246 86.4202L769.445 66.5202H772.794L752.626 86.4202H749.246ZM663.302 198.89L684.851 177.67H729.017L866.138 42.4702L918.094 42.3902L932.783 27.9002L948.372 27.8502L912.164 63.5902H912.134L865.588 63.6702L728.448 198.89H663.302ZM663.302 221.47L683.471 201.6H729.567L866.708 66.3702L909.375 66.3202L889.226 86.2202H889.196L865.568 86.2502L728.448 221.47H663.302ZM728.448 244.05H663.302L683.471 224.18H729.567L866.708 88.9502L886.476 88.9202L728.448 244.05ZM991.029 209.68L956.271 244.04H799.822L819.971 224.17H957.361L972.03 209.68H991.029ZM991.029 187.11L956.271 221.47H799.822L819.971 201.6H957.361L972.03 187.11H991.029ZM956.261 198.89H799.822L821.341 177.67H956.811L970.1 164.53H991.019L956.261 198.89ZM986.919 172.39L997.608 161.83L972.83 161.86L982.239 152.55L1011.8 152.52C1010.77 155.32 1010.2 157.88 1010.07 160.23C1009.87 163.73 1010.82 166.76 1012.9 169.29C1012.35 170.34 1011.87 171.37 1011.42 172.37L986.919 172.39ZM1011.42 182.88C1011.55 180.53 1012.15 177.92 1013.27 175.07C1013.42 174.62 1014.75 171.67 1014.92 171.32C1015.35 171.7 1015.78 172.12 1016.3 172.37C1031.8 179.97 1057.66 180.11 1066.15 180.35C1079.11 180.72 1098.74 178.32 1100.96 178.05C1105.31 177.5 1109.69 176.75 1114.15 175.77C1114.98 175.62 1116.65 175.22 1116.65 175.22C1117.42 175.07 1118.23 174.87 1119.03 174.67H1119.06C1125.34 173.17 1131.66 171.21 1138.11 168.99C1152.05 164.18 1170.74 154.07 1176.4 150.57C1183.61 146.1 1190.81 141.01 1197.89 135.2C1199.37 134 1200.84 132.75 1202.29 131.5H1204.77L1223.92 131.47L1213.18 142.11C1209.9 145.34 1189.17 163.78 1175.67 171.97C1174.55 172.65 1170.74 174.9 1169.96 175.32C1169.16 175.8 1168.36 176.25 1167.56 176.67C1162.96 179.25 1158.37 181.58 1153.79 183.68C1152.56 184.28 1140.57 189.26 1137.65 190.31C1125.11 194.71 1112.72 197.74 1100.78 199.27C1099 199.5 1082.84 201.57 1066.14 201.57C1049.45 201.57 1036.44 200.39 1027.36 198.07C1026.88 197.94 1024.03 197.09 1023.78 197.02C1020.3 195.84 1017.55 194.42 1015.55 192.67C1015.17 192.34 1013.87 190.97 1013.6 190.57C1011.97 188.38 1011.25 185.83 1011.42 182.88ZM1011.42 205.45C1011.57 202.42 1012.55 198.99 1014.32 195.11C1016.5 196.89 1019.3 198.34 1022.75 199.51C1022.8 199.54 1022.85 199.54 1022.9 199.56C1023.3 199.69 1023.7 199.84 1024.13 199.94C1024.58 200.09 1025.03 200.24 1025.51 200.37C1034.87 202.97 1048.51 203.6 1066.14 204.27C1078.83 204.75 1098.45 202.29 1101.13 201.94C1113.24 200.39 1125.83 197.31 1138.55 192.83C1139.4 192.53 1146.86 189.68 1147.98 189.2H1148.01C1156.32 185.72 1164.7 181.54 1173.09 176.66C1173.09 176.66 1195.53 161.77 1204.31 154.06H1205.09L1181.27 177.66H1199C1191.29 184.12 1183.49 189.77 1175.66 194.53C1162.95 202.29 1150.16 208.45 1137.64 212.85C1125.1 217.28 1112.71 220.31 1100.77 221.84C1088.81 223.37 1077.17 224.14 1066.13 224.14C1047.08 224.14 1032.83 222.61 1023.77 219.58C1020.29 218.4 1017.54 216.98 1015.54 215.23C1015.16 214.9 1014.81 214.58 1014.51 214.25C1014.16 213.9 1013.86 213.52 1013.58 213.12C1011.97 210.96 1011.25 208.41 1011.42 205.45ZM1175.67 217.12C1162.96 224.85 1150.17 231.04 1137.65 235.44C1125.11 239.87 1112.72 242.9 1100.78 244.42C1088.82 245.95 1077.18 246.72 1066.14 246.72C1047.09 246.72 1032.84 245.17 1023.78 242.14C1015.1 239.26 1011.04 234.63 1011.42 228.02C1011.57 224.99 1012.55 221.56 1014.32 217.68C1016.52 219.48 1019.4 220.96 1022.9 222.14C1032.26 225.27 1046.79 226.85 1066.14 226.85C1077.3 226.85 1089.07 226.07 1101.13 224.52C1113.24 222.97 1125.83 219.89 1138.55 215.41C1151.24 210.93 1164.2 204.7 1177.09 196.86C1183.7 192.83 1190.27 188.18 1196.8 182.94L1177.99 201.59H1197.35C1190.2 207.5 1182.96 212.69 1175.67 217.12ZM1184.55 221.47L1204.62 201.6H1250.85L1323.36 129.69H1340.97L1292.6 177.67H1293.93L1249.75 221.47H1184.55ZM1249.74 244.05H1184.54L1204.61 224.18H1250.84L1297.74 177.68H1313.41L1289.31 201.58H1292.56L1249.74 244.05ZM1295.87 198.89L1317.27 177.67H1361.58L1367.21 172.09L1513.54 26.8502L1534.41 26.8003L1361.03 198.89H1295.87ZM1534.42 71.9502L1361.03 244.02L1295.87 244.05L1315.89 224.18L1362.16 224.15L1515.45 71.9802L1534.42 71.9502ZM1361.03 221.44L1295.87 221.47L1315.92 201.57H1362.16L1515.45 49.4002L1534.42 49.3702L1361.03 221.44Z" fill="black"/>
    <path d="M630.375 48.3298L644.944 25.7298L628.775 25.7598L642.464 4.50977L555.65 4.68976L471.486 65.4798C471.436 65.2798 471.386 65.0998 471.336 64.9298C470.736 62.9798 469.737 61.2298 468.337 59.5998C471.836 53.0898 472.836 47.3098 471.336 42.3598C470.606 39.9798 469.286 37.8798 467.357 35.9798C470.506 29.9498 471.406 24.6898 470.036 20.1898C468.587 15.4598 464.427 11.7098 457.597 8.97977C450.738 6.24977 440.759 4.89978 427.64 4.92978L324.127 5.12976L302.458 26.3798H302.438L280.51 26.4298L315.967 5.12976L240.293 5.27975L176.697 49.0498L189.966 26.5698L175.078 26.5998L187.617 5.37976L113.042 5.50977L72.6248 109.9L3.32976 177.73H24.4483L0 201.66H23.0784L0 224.24H23.0784L0 246.82H72.8748L142.35 178.74L154.309 171.56L147.999 177.74H169.118L144.69 201.67H167.738L144.69 224.25H167.718L144.69 246.83H217.564L284.66 181.03L308.208 181C320.547 180.97 332.506 180.12 344.075 178.42L311.888 201.67H343.146L311.888 224.25H343.146L311.888 246.83L388.892 246.81L426.78 216.53L460.717 216.5L454.658 224.23H472.376L454.658 246.81H531.642L644.934 70.9398L630.365 70.9698L644.934 48.3698L630.375 48.3298ZM627.015 28.4498L639.974 28.4198L530.142 198.89L460.217 198.92L476.856 177.7H530.892L627.015 28.4498ZM499.984 113.42L513.343 102.96L513.563 102.78L513.593 102.75L518.773 98.6698L518.223 99.3997L518.173 99.4498L515.443 103.08L507.584 113.42H499.984ZM562.65 39.9898H563.4L525.282 90.1497L525.263 90.1998L495.635 113.43H495.615L469.017 113.46L562.65 39.9898ZM469.107 67.1698L454.538 77.6798C454.718 77.5298 464.377 66.1698 466.877 62.0898C467.727 63.2398 469.007 66.6698 469.107 67.1698ZM360.094 37.3898L373.083 37.3598C386.192 37.3298 390.602 41.1398 386.242 48.7698C386.022 49.1998 384.813 50.9998 384.463 51.4698C382.933 53.5498 378.033 58.6498 377.883 58.7798C376.453 58.6498 359.534 58.5998 359.534 58.5998L338.916 78.8198C336.036 79.2498 317.167 79.4698 317.167 79.4698L360.094 37.3898ZM375.183 61.3398C367.034 69.6498 347.555 77.1798 343.625 78.0098L360.644 61.3198C360.644 61.3198 374.553 61.2898 375.183 61.3398ZM173.468 29.3098L185.227 29.2798L171.438 52.6598L152.899 65.4198H152.149L173.468 29.3098ZM6.61952 198.92L28.318 177.7H72.3148L141.64 109.82L276.01 29.0998L299.659 29.0698L281.66 46.7098L140.69 131.4L71.7649 198.9H6.61952V198.92ZM6.61952 221.49L26.9381 201.62H72.8648L142.34 133.54L273.35 54.8498L222.124 105.06L222.074 105.09L140.69 153.99L71.7649 221.49H6.61952ZM162.578 163.4L162.528 163.43L140.68 176.57L71.7549 244.07H6.60953L26.9081 224.2H72.8548L142.33 156.12L213.835 113.17L162.578 163.4ZM151.319 198.92L172.968 177.7H217.015L284.11 111.9L308.208 111.87C315.318 111.84 348.695 108.69 356.055 107.16C356.875 107.01 357.684 106.83 358.504 106.66C360.734 106.18 370.244 103.73 370.244 103.73C373.123 102.95 375.973 102.08 378.803 101.13C379.703 100.85 411.431 88.3898 431.109 73.9998H431.209C431.789 73.5998 434.039 71.8698 434.589 71.4198C434.589 71.4198 444.928 62.8098 449.808 58.0298C451.138 56.7298 463.427 42.6898 465.947 38.4098C467.297 39.8598 468.227 41.4398 468.747 43.1398C469.976 47.1698 469.177 52.0498 466.297 57.5798C466.117 57.9798 461.277 66.9498 454.208 74.1198C453.858 74.4698 452.478 75.9698 452.108 76.3498C451.078 77.4498 449.978 78.5497 448.858 79.6497C444.908 83.5297 440.849 87.1798 436.599 90.6398L436.579 90.6698L419.16 103.26L419.03 103.33C405.131 112.58 385.642 119.87 385.642 119.87C384.863 120.17 381.593 121.35 380.733 121.62C366.364 126.55 351.025 129.9 334.936 131.66H334.916C334.216 131.74 315.847 133.06 308.218 133.09L283.57 133.12L216.475 198.92H151.319ZM151.319 221.49L171.588 201.62H217.564L284.66 135.82L308.208 135.79C314.788 135.79 331.156 134.76 331.856 134.66C347.545 133.21 362.514 130.23 376.653 125.8H376.683C377.633 125.5 396.532 118.44 401.081 116.29L352.055 151.7H352.025C338.056 154.33 323.417 155.63 308.208 155.65L283.56 155.68L216.465 221.48H151.319V221.49ZM283.56 178.27L216.465 244.07H151.319L171.588 224.2H217.564L284.66 158.4C284.66 158.4 329.866 159.89 347.055 155.32L316.067 177.7L283.56 178.27ZM320.247 198.92L349.625 177.7H388.412L426.3 147.39L481.206 147.36L464.567 168.58L425.83 168.61L387.942 198.92H320.247ZM320.247 221.49L347.755 201.62H388.902L426.79 171.31L462.447 171.28L457.437 177.69H473.426L473.376 177.74L462.837 191.15L425.82 191.18L387.932 221.46L351.515 221.49H320.247ZM425.83 213.76L387.942 244.04L320.247 244.07L347.755 224.2H347.775L388.892 224.17L426.78 193.89L460.737 193.87L454.658 201.63H472.346L462.837 213.74L425.83 213.76ZM639.984 73.5798L530.142 244.05H460.217L475.806 224.18H531.642L628.645 73.6098L639.984 73.5798ZM530.142 221.47H460.217L475.786 201.62L531.642 201.59L628.645 51.0198L639.984 50.9898L530.142 221.47Z" fill="black"/>
</svg>
