<svg width="174" height="30" viewBox="0 0 174 30" fill="none" xmlns="http://www.w3.org/2000/svg">
    <path d="M12.4944 9.76887L20.5497 9.75536L16.6793 16.3108L16.5457 16.5371H16.8084H16.8932H16.9399L16.9783 16.5106L26.808 9.74352L34.7639 9.72774L15.5443 21.2716L15.5292 21.2807L15.5166 21.293L7.73262 28.9141H0.367814L7.93264 21.5131L7.95588 21.4903L7.96762 21.46L12.4944 9.76887Z" fill="#1D1D1D" stroke="white" stroke-width="0.3"/>
    <path d="M42.4505 15.7003L42.4505 15.7003C41.603 16.5307 40.7173 17.1414 39.7901 17.5342C38.8647 17.9263 37.9039 18.1225 36.9059 18.1226L42.4505 15.7003ZM42.4505 15.7003C42.8588 15.2999 43.1597 14.9428 43.3465 14.63C43.5308 14.3211 43.6189 14.0301 43.555 13.7744C43.4886 13.5087 43.2725 13.3324 42.9713 13.2249C42.6713 13.1179 42.2616 13.0687 41.7519 13.0694L41.7518 13.0694L40.2851 13.0723L40.224 13.0724L40.1804 13.1152L35.334 17.8683L35.0711 18.1261L35.4393 18.1254L36.9057 18.1226L42.4505 15.7003ZM51.2395 10.1513L51.2397 10.1514C51.993 10.4511 52.4139 10.8465 52.559 11.3218C52.7062 11.8041 52.6036 12.3932 52.2069 13.1039C51.8095 13.816 51.1786 14.596 50.3111 15.4495C48.2659 17.4581 45.9044 18.9643 43.2337 19.9714C40.5593 20.9761 37.6243 21.4821 34.43 21.485L31.7058 21.4878L31.6447 21.4878L31.601 21.5307L24.0685 28.9171H16.7034L36.286 9.72954L47.9156 9.70424C47.9157 9.70424 47.9157 9.70424 47.9157 9.70424C49.3899 9.70143 50.4947 9.85395 51.2395 10.1513Z" fill="#1D1D1D" stroke="white" stroke-width="0.3"/>
    <path d="M59.496 28.9112H51.5921L54.0864 25.7316L54.2769 25.4889L53.9684 25.489L47.7683 25.4918L47.7158 25.4919L47.6748 25.5247L43.4374 28.9112H35.7842L62.4213 9.67566L71.9003 9.65927L59.496 28.9112ZM63.1639 13.3631H63.1121L63.0713 13.395L52.494 21.6891L52.1518 21.9574L52.5867 21.9571L56.9442 21.9543L57.0185 21.9542L57.0635 21.895L63.3653 13.6039L63.5483 13.3631H63.2458H63.1639Z" fill="#1D1D1D" stroke="white" stroke-width="0.3"/>
    <path d="M81.8857 28.9112H74.5222L89.7475 13.9111L90.0087 13.6537L89.642 13.6542L84.2243 13.6621L88.3191 9.63047L107.331 9.59454L103.235 13.6345L97.433 13.6429L97.3716 13.643L97.3279 13.6861L81.8857 28.9112Z" fill="#1D1D1D" stroke="white" stroke-width="0.3"/>
    <path d="M101.602 25.028L111.543 25.0226L107.614 28.9076H89.9437L109.526 9.58723L126.819 9.55689L122.89 13.4387L113.022 13.4527L112.96 13.4528L112.916 13.496L109.52 16.8503L109.259 17.1075L109.625 17.1071L118.559 17.0962L114.797 20.8142L105.558 20.8227L105.497 20.8227L105.453 20.8659L101.497 24.7713L101.237 25.0282L101.602 25.028Z" fill="#1D1D1D" stroke="white" stroke-width="0.3"/>
    <path d="M115.183 28.8407C116.225 29.1883 117.836 29.3635 120.015 29.3635C121.273 29.3635 122.581 29.2759 123.946 29.1007M115.183 28.8407L124.853 25.7378C125.316 25.5824 125.819 25.3196 126.359 24.9522C126.899 24.5849 127.512 24.0932 128.204 23.4771C128.897 22.8611 129.716 22.084 130.663 21.1486L137.989 21.1431L137.838 21.2932M115.183 28.8407C114.137 28.4931 113.64 27.9081 113.682 27.0914C113.725 26.2748 114.256 25.2207 115.273 23.9264L115.183 28.8407ZM123.946 29.1007C125.308 28.9255 126.707 28.5863 128.139 28.0805C129.572 27.5747 131.013 26.8795 132.463 25.9978M123.946 29.1007L123.927 28.9519C123.927 28.9519 123.927 28.9519 123.927 28.9519M123.946 29.1007L123.927 28.9519M132.463 25.9978C133.913 25.1133 135.334 23.983 136.727 22.6039M132.463 25.9978L132.385 25.8697C132.385 25.8697 132.385 25.8697 132.385 25.8698M132.463 25.9978L132.385 25.8698M136.727 22.6039L138.051 21.293L137.838 21.2932M136.727 22.6039L136.622 22.4973L136.622 22.4973M136.727 22.6039L136.622 22.4973M137.838 21.2932L130.725 21.2985M137.838 21.2932L136.622 22.4973M130.725 21.2985L136.406 15.4679L135.552 16.3128L142.665 16.3048L143.873 15.1077C144.832 14.1575 145.516 13.3099 145.927 12.5645C146.338 11.8209 146.418 11.2183 146.222 10.7382C146.027 10.2606 145.507 9.86186 144.59 9.57559C143.679 9.29132 142.352 9.14722 140.596 9.15004L140.596 9.15004C138.593 9.15285 136.733 9.33293 135.015 9.69226C133.298 10.0513 131.617 10.6321 129.972 11.4351C128.329 12.2381 126.676 13.289 125.016 14.5863C123.354 15.8875 121.578 17.4716 119.688 19.3393M130.725 21.2985C129.795 22.2157 128.988 22.9803 128.304 23.5892C127.609 24.2077 126.991 24.704 126.444 25.0762C125.896 25.4489 125.381 25.7191 124.901 25.8801L124.9 25.8801C124.42 26.0404 123.935 26.1224 123.443 26.1224C123.144 26.1224 122.891 26.0973 122.69 26.0422C122.49 25.9876 122.325 25.8986 122.224 25.7571C122.115 25.605 122.112 25.4119 122.166 25.2116C122.22 25.0104 122.339 24.7768 122.512 24.5138C122.512 24.5138 122.512 24.5137 122.512 24.5136L122.637 24.5962L130.725 21.2985ZM136.622 22.4973C135.236 23.8693 133.823 24.9921 132.385 25.8698M132.385 25.8698C130.943 26.7467 129.511 27.4371 128.09 27.9391C126.666 28.4417 125.277 28.7782 123.927 28.9519M123.927 28.9519C122.568 29.1264 121.266 29.2135 120.015 29.2135C117.84 29.2135 116.249 29.038 115.23 28.6984L115.23 28.6983C114.723 28.5297 114.364 28.3085 114.138 28.0444C113.916 27.784 113.813 27.4721 113.832 27.0992C113.872 26.3321 114.377 25.3097 115.391 24.0191L115.391 24.019C116.4 22.7318 117.834 21.1741 119.688 19.3393M119.688 19.3393L119.583 19.2326L119.688 19.3393C119.688 19.3393 119.688 19.3393 119.688 19.3393Z" fill="#1D1D1D" stroke="white" stroke-width="0.3"/>
    <path d="M160.328 9.49784L153.29 16.4751L153.031 16.732L153.396 16.7316L158.172 16.726L158.234 16.7259L158.277 16.6825L165.53 9.48873L172.895 9.47537L153.314 28.9108H145.947L153.875 21.0456L154.133 20.7889L153.769 20.7892L148.993 20.792L148.931 20.792L148.888 20.8355L140.745 28.908H133.38L152.963 9.50853L160.328 9.49784Z" fill="#1D1D1D" stroke="white" stroke-width="0.3"/>
    <path d="M12.4944 6.76887L20.5497 6.75536L16.6793 13.3108L16.5457 13.5371H16.8084H16.8932H16.9399L16.9783 13.5106L26.808 6.74352L34.7639 6.72774L15.5443 18.2716L15.5292 18.2807L15.5166 18.293L7.73262 25.9141H0.367814L7.93264 18.5131L7.95588 18.4903L7.96762 18.46L12.4944 6.76887Z" fill="#1D1D1D" stroke="white" stroke-width="0.3"/>
    <path d="M42.4505 12.7003L42.4505 12.7003C41.603 13.5307 40.7173 14.1414 39.7901 14.5342C38.8647 14.9263 37.9039 15.1225 36.9059 15.1226L42.4505 12.7003ZM42.4505 12.7003C42.8588 12.2999 43.1597 11.9428 43.3465 11.63C43.5308 11.3211 43.6189 11.0301 43.555 10.7744C43.4886 10.5087 43.2725 10.3324 42.9713 10.2249C42.6713 10.1179 42.2616 10.0687 41.7519 10.0694L41.7518 10.0694L40.2851 10.0723L40.224 10.0724L40.1804 10.1152L35.334 14.8683L35.0711 15.1261L35.4393 15.1254L36.9057 15.1226L42.4505 12.7003ZM51.2395 7.15134L51.2397 7.15141C51.993 7.45107 52.4139 7.84649 52.559 8.32183C52.7062 8.80411 52.6036 9.39316 52.2069 10.1039C51.8095 10.816 51.1786 11.596 50.3111 12.4495C48.2659 14.4581 45.9044 15.9643 43.2337 16.9714C40.5593 17.9761 37.6243 18.4821 34.43 18.485L31.7058 18.4878L31.6447 18.4878L31.601 18.5307L24.0685 25.9171H16.7034L36.286 6.72954L47.9156 6.70424C47.9157 6.70424 47.9157 6.70424 47.9157 6.70424C49.3899 6.70143 50.4947 6.85395 51.2395 7.15134Z" fill="#1D1D1D" stroke="white" stroke-width="0.3"/>
    <path d="M59.496 25.9112H51.5921L54.0864 22.7316L54.2769 22.4889L53.9684 22.489L47.7683 22.4918L47.7158 22.4919L47.6748 22.5247L43.4374 25.9112H35.7842L62.4213 6.67566L71.9003 6.65927L59.496 25.9112ZM63.1639 10.3631H63.1121L63.0713 10.395L52.494 18.6891L52.1518 18.9574L52.5867 18.9571L56.9442 18.9543L57.0185 18.9542L57.0635 18.895L63.3653 10.6039L63.5483 10.3631H63.2458H63.1639Z" fill="#1D1D1D" stroke="white" stroke-width="0.3"/>
    <path d="M81.8857 25.9112H74.5222L89.7475 10.9111L90.0087 10.6537L89.642 10.6542L84.2243 10.6621L88.3191 6.63047L107.331 6.59454L103.235 10.6345L97.433 10.6429L97.3716 10.643L97.3279 10.6861L81.8857 25.9112Z" fill="#1D1D1D" stroke="white" stroke-width="0.3"/>
    <path d="M101.602 22.028L111.543 22.0226L107.614 25.9076H89.9437L109.526 6.58723L126.819 6.55689L122.89 10.4387L113.022 10.4527L112.96 10.4528L112.916 10.496L109.52 13.8503L109.259 14.1075L109.625 14.1071L118.559 14.0962L114.797 17.8142L105.558 17.8227L105.497 17.8227L105.453 17.8659L101.497 21.7713L101.237 22.0282L101.602 22.028Z" fill="#1D1D1D" stroke="white" stroke-width="0.3"/>
    <path d="M115.183 25.8407C116.225 26.1883 117.836 26.3635 120.015 26.3635C121.273 26.3635 122.581 26.2759 123.946 26.1007M115.183 25.8407L124.853 22.7378C125.316 22.5824 125.819 22.3196 126.359 21.9522C126.899 21.5849 127.512 21.0932 128.204 20.4771C128.897 19.8611 129.716 19.084 130.663 18.1486L137.989 18.1431L137.838 18.2932M115.183 25.8407C114.137 25.4931 113.64 24.9081 113.682 24.0914C113.725 23.2748 114.256 22.2207 115.273 20.9264L115.183 25.8407ZM123.946 26.1007C125.308 25.9255 126.707 25.5863 128.139 25.0805C129.572 24.5747 131.013 23.8795 132.463 22.9978M123.946 26.1007L123.927 25.9519C123.927 25.9519 123.927 25.9519 123.927 25.9519M123.946 26.1007L123.927 25.9519M132.463 22.9978C133.913 22.1133 135.334 20.983 136.727 19.6039M132.463 22.9978L132.385 22.8697C132.385 22.8697 132.385 22.8697 132.385 22.8698M132.463 22.9978L132.385 22.8698M136.727 19.6039L138.051 18.293L137.838 18.2932M136.727 19.6039L136.622 19.4973L136.622 19.4973M136.727 19.6039L136.622 19.4973M137.838 18.2932L130.725 18.2985M137.838 18.2932L136.622 19.4973M130.725 18.2985L136.406 12.4679L135.552 13.3128L142.665 13.3048L143.873 12.1077C144.832 11.1575 145.516 10.3099 145.927 9.5645C146.338 8.82087 146.418 8.21832 146.222 7.73816C146.027 7.26056 145.507 6.86186 144.59 6.57559C143.679 6.29132 142.352 6.14722 140.596 6.15004L140.596 6.15004C138.593 6.15285 136.733 6.33293 135.015 6.69226C133.298 7.05133 131.617 7.6321 129.972 8.43508C128.329 9.23805 126.676 10.289 125.016 11.5863C123.354 12.8875 121.578 14.4716 119.688 16.3393M130.725 18.2985C129.795 19.2157 128.988 19.9803 128.304 20.5892C127.609 21.2077 126.991 21.704 126.444 22.0762C125.896 22.4489 125.381 22.7191 124.901 22.8801L124.9 22.8801C124.42 23.0404 123.935 23.1224 123.443 23.1224C123.144 23.1224 122.891 23.0973 122.69 23.0422C122.49 22.9876 122.325 22.8986 122.224 22.7571C122.115 22.605 122.112 22.4119 122.166 22.2116C122.22 22.0104 122.339 21.7768 122.512 21.5138C122.512 21.5138 122.512 21.5137 122.512 21.5136L122.637 21.5962L130.725 18.2985ZM136.622 19.4973C135.236 20.8693 133.823 21.9921 132.385 22.8698M132.385 22.8698C130.943 23.7467 129.511 24.4371 128.09 24.9391C126.666 25.4417 125.277 25.7782 123.927 25.9519M123.927 25.9519C122.568 26.1264 121.266 26.2135 120.015 26.2135C117.84 26.2135 116.249 26.038 115.23 25.6984L115.23 25.6983C114.723 25.5297 114.364 25.3085 114.138 25.0444C113.916 24.784 113.813 24.4721 113.832 24.0992C113.872 23.3321 114.377 22.3097 115.391 21.0191L115.391 21.019C116.4 19.7318 117.834 18.1741 119.688 16.3393M119.688 16.3393L119.583 16.2326L119.688 16.3393C119.688 16.3393 119.688 16.3393 119.688 16.3393Z" fill="#1D1D1D" stroke="white" stroke-width="0.3"/>
    <path d="M160.328 6.49784L153.29 13.4751L153.031 13.732L153.396 13.7316L158.172 13.726L158.234 13.7259L158.277 13.6825L165.53 6.48873L172.895 6.47537L153.314 25.9108H145.947L153.875 18.0456L154.133 17.7889L153.769 17.7892L148.993 17.792L148.931 17.792L148.888 17.8355L140.745 25.908H133.38L152.963 6.50853L160.328 6.49784Z" fill="#1D1D1D" stroke="white" stroke-width="0.3"/>
    <path d="M12.4944 3.76887L20.5497 3.75536L16.6793 10.3108L16.5457 10.5371H16.8084H16.8932H16.9399L16.9783 10.5106L26.808 3.74352L34.7639 3.72774L15.5443 15.2716L15.5292 15.2807L15.5166 15.293L7.73262 22.9141H0.367814L7.93264 15.5131L7.95588 15.4903L7.96762 15.46L12.4944 3.76887Z" fill="#1D1D1D" stroke="white" stroke-width="0.3"/>
    <path d="M42.4505 9.70027L42.4505 9.70033C41.603 10.5307 40.7173 11.1414 39.7901 11.5342C38.8647 11.9263 37.9039 12.1225 36.9059 12.1226L42.4505 9.70027ZM42.4505 9.70027C42.8588 9.29986 43.1597 8.94282 43.3465 8.62996C43.5308 8.32107 43.6189 8.03006 43.555 7.77437C43.4886 7.50869 43.2725 7.33237 42.9713 7.22492C42.6713 7.11786 42.2616 7.06871 41.7519 7.06943L41.7518 7.06943L40.2851 7.07225L40.224 7.07237L40.1804 7.11516L35.334 11.8683L35.0711 12.1261L35.4393 12.1254L36.9057 12.1226L42.4505 9.70027ZM51.2395 4.15134L51.2397 4.15141C51.993 4.45107 52.4139 4.84649 52.559 5.32183C52.7062 5.80411 52.6036 6.39316 52.2069 7.10393C51.8095 7.81604 51.1786 8.59599 50.3111 9.44952C48.2659 11.4581 45.9044 12.9643 43.2337 13.9714C40.5593 14.9761 37.6243 15.4821 34.43 15.485L31.7058 15.4878L31.6447 15.4878L31.601 15.5307L24.0685 22.9171H16.7034L36.286 3.72954L47.9156 3.70424C47.9157 3.70424 47.9157 3.70424 47.9157 3.70424C49.3899 3.70143 50.4947 3.85395 51.2395 4.15134Z" fill="#1D1D1D" stroke="white" stroke-width="0.3"/>
    <path d="M59.496 22.9112H51.5921L54.0864 19.7316L54.2769 19.4889L53.9684 19.489L47.7683 19.4918L47.7158 19.4919L47.6748 19.5247L43.4374 22.9112H35.7842L62.4213 3.67566L71.9003 3.65927L59.496 22.9112ZM63.1639 7.36309H63.1121L63.0713 7.39505L52.494 15.6891L52.1518 15.9574L52.5867 15.9571L56.9442 15.9543L57.0185 15.9542L57.0635 15.895L63.3653 7.60385L63.5483 7.36309H63.2458H63.1639Z" fill="#1D1D1D" stroke="white" stroke-width="0.3"/>
    <path d="M81.8857 22.9112H74.5222L89.7475 7.91106L90.0087 7.65367L89.642 7.65421L84.2243 7.66215L88.3191 3.63047L107.331 3.59454L103.235 7.63452L97.433 7.64291L97.3716 7.64299L97.3279 7.68609L81.8857 22.9112Z" fill="#1D1D1D" stroke="white" stroke-width="0.3"/>
    <path d="M101.602 19.028L111.543 19.0226L107.614 22.9076H89.9437L109.526 3.58723L126.819 3.55689L122.89 7.43867L113.022 7.45271L112.96 7.4528L112.916 7.49598L109.52 10.8503L109.259 11.1075L109.625 11.1071L118.559 11.0962L114.797 14.8142L105.558 14.8227L105.497 14.8227L105.453 14.8659L101.497 18.7713L101.237 19.0282L101.602 19.028Z" fill="#1D1D1D" stroke="white" stroke-width="0.3"/>
    <path d="M115.183 22.8407C116.225 23.1883 117.836 23.3635 120.015 23.3635C121.273 23.3635 122.581 23.2759 123.946 23.1007M115.183 22.8407L124.853 19.7378C125.316 19.5824 125.819 19.3196 126.359 18.9522C126.899 18.5849 127.512 18.0932 128.204 17.4771C128.897 16.8611 129.716 16.084 130.663 15.1486L137.989 15.1431L137.838 15.2932M115.183 22.8407C114.137 22.4931 113.64 21.9081 113.682 21.0914C113.725 20.2748 114.256 19.2207 115.273 17.9264L115.183 22.8407ZM123.946 23.1007C125.308 22.9255 126.707 22.5863 128.139 22.0805C129.572 21.5747 131.013 20.8795 132.463 19.9978M123.946 23.1007L123.927 22.9519C123.927 22.9519 123.927 22.9519 123.927 22.9519M123.946 23.1007L123.927 22.9519M132.463 19.9978C133.913 19.1133 135.334 17.983 136.727 16.6039M132.463 19.9978L132.385 19.8697C132.385 19.8697 132.385 19.8697 132.385 19.8698M132.463 19.9978L132.385 19.8698M136.727 16.6039L138.051 15.293L137.838 15.2932M136.727 16.6039L136.622 16.4973L136.622 16.4973M136.727 16.6039L136.622 16.4973M137.838 15.2932L130.725 15.2985M137.838 15.2932L136.622 16.4973M130.725 15.2985L136.406 9.46787L135.552 10.3128L142.665 10.3048L143.873 9.10766C144.832 8.15747 145.516 7.3099 145.927 6.5645C146.338 5.82087 146.418 5.21832 146.222 4.73816C146.027 4.26056 145.507 3.86186 144.59 3.57559C143.679 3.29132 142.352 3.14722 140.596 3.15004L140.596 3.15004C138.593 3.15285 136.733 3.33293 135.015 3.69226C133.298 4.05133 131.617 4.6321 129.972 5.43508C128.329 6.23805 126.676 7.28904 125.016 8.58626C123.354 9.88751 121.578 11.4716 119.688 13.3393M130.725 15.2985C129.795 16.2157 128.988 16.9803 128.304 17.5892C127.609 18.2077 126.991 18.704 126.444 19.0762C125.896 19.4489 125.381 19.7191 124.901 19.8801L124.9 19.8801C124.42 20.0404 123.935 20.1224 123.443 20.1224C123.144 20.1224 122.891 20.0973 122.69 20.0422C122.49 19.9876 122.325 19.8986 122.224 19.7571C122.115 19.605 122.112 19.4119 122.166 19.2116C122.22 19.0104 122.339 18.7768 122.512 18.5138C122.512 18.5138 122.512 18.5137 122.512 18.5136L122.637 18.5962L130.725 15.2985ZM136.622 16.4973C135.236 17.8693 133.823 18.9921 132.385 19.8698M132.385 19.8698C130.943 20.7467 129.511 21.4371 128.09 21.9391C126.666 22.4417 125.277 22.7782 123.927 22.9519M123.927 22.9519C122.568 23.1264 121.266 23.2135 120.015 23.2135C117.84 23.2135 116.249 23.038 115.23 22.6984L115.23 22.6983C114.723 22.5297 114.364 22.3085 114.138 22.0444C113.916 21.784 113.813 21.4721 113.832 21.0992C113.872 20.3321 114.377 19.3097 115.391 18.0191L115.391 18.019C116.4 16.7318 117.834 15.1741 119.688 13.3393M119.688 13.3393L119.583 13.2326L119.688 13.3393C119.688 13.3393 119.688 13.3393 119.688 13.3393Z" fill="#1D1D1D" stroke="white" stroke-width="0.3"/>
    <path d="M160.328 3.49784L153.29 10.4751L153.031 10.732L153.396 10.7316L158.172 10.726L158.234 10.7259L158.277 10.6825L165.53 3.48873L172.895 3.47537L153.314 22.9108H145.947L153.875 15.0456L154.133 14.7889L153.769 14.7892L148.993 14.792L148.931 14.792L148.888 14.8355L140.745 22.908H133.38L152.963 3.50853L160.328 3.49784Z" fill="#1D1D1D" stroke="white" stroke-width="0.3"/>
    <path d="M12.4944 0.768875L20.5497 0.755358L16.6793 7.31081L16.5457 7.53707H16.8084H16.8932H16.9399L16.9783 7.51063L26.808 0.743522L34.7639 0.727738L15.5443 12.2716L15.5292 12.2807L15.5166 12.293L7.73262 19.9141H0.367814L7.93264 12.5131L7.95588 12.4903L7.96762 12.46L12.4944 0.768875Z" fill="white" stroke="white" stroke-width="0.3"/>
    <path d="M42.4505 6.70027L42.4505 6.70033C41.603 7.53066 40.7173 8.14139 39.7901 8.53422C38.8647 8.92628 37.9039 9.12255 36.9059 9.12259L42.4505 6.70027ZM42.4505 6.70027C42.8588 6.29986 43.1597 5.94282 43.3465 5.62996C43.5308 5.32107 43.6189 5.03006 43.555 4.77437C43.4886 4.50869 43.2725 4.33237 42.9713 4.22492C42.6713 4.11786 42.2616 4.06871 41.7519 4.06943L41.7518 4.06943L40.2851 4.07225L40.224 4.07237L40.1804 4.11516L35.334 8.86832L35.0711 9.12612L35.4393 9.12541L36.9057 9.12259L42.4505 6.70027ZM51.2395 1.15134L51.2397 1.15141C51.993 1.45107 52.4139 1.84649 52.559 2.32183C52.7062 2.80411 52.6036 3.39316 52.2069 4.10393C51.8095 4.81604 51.1786 5.59599 50.3111 6.44952C48.2659 8.45815 45.9044 9.96428 43.2337 10.9714C40.5593 11.9761 37.6243 12.4821 34.43 12.485L31.7058 12.4878L31.6447 12.4878L31.601 12.5307L24.0685 19.9171H16.7034L36.286 0.729537L47.9156 0.704237C47.9157 0.704237 47.9157 0.704237 47.9157 0.704237C49.3899 0.701427 50.4947 0.853946 51.2395 1.15134Z" fill="white" stroke="white" stroke-width="0.3"/>
    <path d="M59.496 19.9112H51.5921L54.0864 16.7316L54.2769 16.4889L53.9684 16.489L47.7683 16.4918L47.7158 16.4919L47.6748 16.5247L43.4374 19.9112H35.7842L62.4213 0.67566L71.9003 0.659266L59.496 19.9112ZM63.1639 4.36309H63.1121L63.0713 4.39505L52.494 12.6891L52.1518 12.9574L52.5867 12.9571L56.9442 12.9543L57.0185 12.9542L57.0635 12.895L63.3653 4.60385L63.5483 4.36309H63.2458H63.1639Z" fill="white" stroke="white" stroke-width="0.3"/>
    <path d="M81.8857 19.9112H74.5222L89.7475 4.91106L90.0087 4.65367L89.642 4.65421L84.2243 4.66215L88.3191 0.630465L107.331 0.59454L103.235 4.63452L97.433 4.64291L97.3716 4.64299L97.3279 4.68609L81.8857 19.9112Z" fill="white" stroke="white" stroke-width="0.3"/>
    <path d="M101.602 16.028L111.543 16.0226L107.614 19.9076H89.9437L109.526 0.587227L126.819 0.556892L122.89 4.43867L113.022 4.45271L112.96 4.4528L112.916 4.49598L109.52 7.85032L109.259 8.1075L109.625 8.10705L118.559 8.09619L114.797 11.8142L105.558 11.8227L105.497 11.8227L105.453 11.8659L101.497 15.7713L101.237 16.0282L101.602 16.028Z" fill="white" stroke="white" stroke-width="0.3"/>
    <path d="M115.183 19.8407C116.225 20.1883 117.836 20.3635 120.015 20.3635C121.273 20.3635 122.581 20.2759 123.946 20.1007M115.183 19.8407L124.853 16.7378C125.316 16.5824 125.819 16.3196 126.359 15.9522C126.899 15.5849 127.512 15.0932 128.204 14.4771C128.897 13.8611 129.716 13.084 130.663 12.1486L137.989 12.1431L137.838 12.2932M115.183 19.8407C114.137 19.4931 113.64 18.9081 113.682 18.0914C113.725 17.2748 114.256 16.2207 115.273 14.9264L115.183 19.8407ZM123.946 20.1007C125.308 19.9255 126.707 19.5863 128.139 19.0805C129.572 18.5747 131.013 17.8795 132.463 16.9978M123.946 20.1007L123.927 19.9519C123.927 19.9519 123.927 19.9519 123.927 19.9519M123.946 20.1007L123.927 19.9519M132.463 16.9978C133.913 16.1133 135.334 14.983 136.727 13.6039M132.463 16.9978L132.385 16.8697C132.385 16.8697 132.385 16.8697 132.385 16.8698M132.463 16.9978L132.385 16.8698M136.727 13.6039L138.051 12.293L137.838 12.2932M136.727 13.6039L136.622 13.4973L136.622 13.4973M136.727 13.6039L136.622 13.4973M137.838 12.2932L130.725 12.2985M137.838 12.2932L136.622 13.4973M130.725 12.2985L136.406 6.46787L135.552 7.31283L142.665 7.30483L143.873 6.10766C144.832 5.15747 145.516 4.3099 145.927 3.5645C146.338 2.82087 146.418 2.21832 146.222 1.73816C146.027 1.26056 145.507 0.861857 144.59 0.57559C143.679 0.291324 142.352 0.147223 140.596 0.150041L140.596 0.150041C138.593 0.152854 136.733 0.332927 135.015 0.692264C133.298 1.05133 131.617 1.6321 129.972 2.43508C128.329 3.23805 126.676 4.28904 125.016 5.58626C123.354 6.88751 121.578 8.47165 119.688 10.3393M130.725 12.2985C129.795 13.2157 128.988 13.9803 128.304 14.5892C127.609 15.2077 126.991 15.704 126.444 16.0762C125.896 16.4489 125.381 16.7191 124.901 16.8801L124.9 16.8801C124.42 17.0404 123.935 17.1224 123.443 17.1224C123.144 17.1224 122.891 17.0973 122.69 17.0422C122.49 16.9876 122.325 16.8986 122.224 16.7571C122.115 16.605 122.112 16.4119 122.166 16.2116C122.22 16.0104 122.339 15.7768 122.512 15.5138C122.512 15.5138 122.512 15.5137 122.512 15.5136L122.637 15.5962L130.725 12.2985ZM136.622 13.4973C135.236 14.8693 133.823 15.9921 132.385 16.8698M132.385 16.8698C130.943 17.7467 129.511 18.4371 128.09 18.9391C126.666 19.4417 125.277 19.7782 123.927 19.9519M123.927 19.9519C122.568 20.1264 121.266 20.2135 120.015 20.2135C117.84 20.2135 116.249 20.038 115.23 19.6984L115.23 19.6983C114.723 19.5297 114.364 19.3085 114.138 19.0444C113.916 18.784 113.813 18.4721 113.832 18.0992C113.872 17.3321 114.377 16.3097 115.391 15.0191L115.391 15.019C116.4 13.7318 117.834 12.1741 119.688 10.3393M119.688 10.3393L119.583 10.2326L119.688 10.3393C119.688 10.3393 119.688 10.3393 119.688 10.3393Z" fill="white" stroke="white" stroke-width="0.3"/>
    <path d="M160.328 0.497844L153.29 7.4751L153.031 7.73205L153.396 7.73162L158.172 7.72596L158.234 7.72589L158.277 7.68246L165.53 0.488725L172.895 0.475369L153.314 19.9108H145.947L153.875 12.0456L154.133 11.7889L153.769 11.7892L148.993 11.792L148.931 11.792L148.888 11.8355L140.745 19.908H133.38L152.963 0.508531L160.328 0.497844Z" fill="white" stroke="white" stroke-width="0.3"/>
</svg>
