<svg width="15" height="15" viewBox="0 0 15 15" fill="none" xmlns="http://www.w3.org/2000/svg">
<path d="M13.3618 9.84361C13.3618 9.84361 12.0308 9.30021 11.6937 9.17461C11.3566 9.05454 11.1119 8.99174 10.8662 9.3621C10.6261 9.72322 9.91858 10.5498 9.70246 10.7909C9.48634 11.0319 9.27392 11.0504 8.9091 10.8869C8.53874 10.6995 7.35562 10.3143 5.95084 9.05454C4.85361 8.0783 4.12305 6.87579 3.90601 6.50543C3.68988 6.13968 3.88199 5.9328 4.06486 5.74993C4.23296 5.58184 4.43522 5.32692 4.62271 5.10526C4.80097 4.8836 4.85823 4.7349 4.98845 4.49477C5.10852 4.23524 5.04664 4.03297 4.9552 3.8501C4.86377 3.66723 4.12767 1.85422 3.82011 1.13197C3.52641 0.415264 3.21885 0.5067 2.99257 0.5067C2.78107 0.487305 2.5354 0.487305 2.29064 0.487305C2.04589 0.487305 1.64598 0.57874 1.30887 0.929705C0.971754 1.30007 0.0195312 2.18487 0.0195312 3.97479C0.0195312 5.76933 1.3375 7.50568 1.52037 7.76521C1.70786 8.00534 4.11289 11.6997 7.80264 13.2874C8.68282 13.6577 9.36628 13.8794 9.90011 14.0623C10.7803 14.3412 11.5838 14.3024 12.2183 14.211C12.9203 14.0955 14.3925 13.3206 14.7009 12.4552C15.014 11.5843 15.014 10.8629 14.9226 10.6995C14.8312 10.5314 14.591 10.4399 14.2207 10.2765L13.7912 10.06L13.3618 9.84361Z" fill="#F5F5F5"/>
</svg>
