<?xml version="1.0" standalone="no"?>
<!DOCTYPE svg PUBLIC "-//W3C//DTD SVG 20010904//EN"
 "http://www.w3.org/TR/2001/REC-SVG-20010904/DTD/svg10.dtd">
<svg version="1.0" xmlns="http://www.w3.org/2000/svg"
 width="1250.000000pt" height="1250.000000pt" viewBox="0 0 1250.000000 1250.000000"
 preserveAspectRatio="xMidYMid meet">
<metadata>
Created by potrace 1.14, written by Peter Selinger 2001-2017
</metadata>
<g transform="translate(0.000000,1250.000000) scale(0.100000,-0.100000)"
fill="#000000" stroke="none">
<path d="M7514 9949 c-3 -6 -21 -17 -38 -25 -17 -8 -53 -28 -81 -44 -27 -17
-72 -43 -98 -58 -83 -46 -99 -56 -199 -115 -53 -31 -102 -57 -107 -57 -6 0
-11 -4 -11 -10 0 -5 -4 -10 -9 -10 -16 0 -151 -82 -151 -92 0 -8 104 -154 120
-168 3 -3 22 -28 42 -57 27 -38 34 -54 25 -60 -19 -12 -68 -40 -129 -74 -32
-18 -58 -36 -58 -42 0 -8 56 -89 93 -132 29 -36 108 -147 106 -149 -14 -9
-159 -93 -181 -104 -24 -11 -26 -16 -15 -33 6 -10 15 -19 19 -19 5 0 8 -5 8
-11 0 -6 19 -35 43 -64 51 -66 109 -143 119 -160 6 -9 -23 -31 -93 -70 -76
-44 -99 -62 -96 -75 4 -16 2 -16 -32 0 -107 51 -254 107 -327 125 -10 3 -53
14 -94 25 -41 11 -86 22 -100 25 -14 3 -34 7 -45 9 -17 3 -54 9 -150 22 -140
20 -392 21 -545 2 -41 -5 -88 -11 -105 -13 -27 -2 -46 -5 -125 -19 -14 -3 -40
-9 -58 -15 -18 -5 -35 -10 -37 -10 -44 1 -314 -87 -460 -149 -71 -31 -132 -58
-135 -61 -3 -3 -41 -24 -85 -46 -44 -22 -82 -42 -85 -45 -3 -3 -14 -10 -25
-16 -76 -41 -121 -67 -130 -74 -9 -7 -27 -18 -135 -78 -25 -14 -62 -36 -82
-49 -21 -12 -39 -23 -42 -23 -2 0 -61 -34 -131 -75 -69 -41 -131 -75 -136 -75
-5 0 -9 -4 -9 -9 0 -5 -11 -12 -25 -15 -14 -4 -25 -11 -25 -16 0 -6 -4 -10 -9
-10 -5 0 -49 -23 -98 -51 -48 -29 -113 -65 -143 -82 -30 -16 -62 -36 -70 -43
-8 -7 -26 -17 -40 -23 -14 -6 -43 -22 -65 -36 -22 -14 -50 -29 -62 -35 -27
-11 -39 -30 -19 -30 9 0 16 -3 16 -8 0 -4 28 -22 63 -40 34 -19 91 -51 127
-73 36 -22 75 -44 88 -49 36 -15 26 -33 -36 -65 -31 -16 -59 -33 -62 -36 -3
-4 -17 -13 -30 -18 -25 -11 -61 -32 -70 -41 -12 -12 -81 -43 -85 -38 -13 12
-135 211 -135 219 0 5 -4 9 -10 9 -5 0 -10 7 -10 15 0 8 -4 15 -10 15 -5 0
-10 7 -10 15 0 14 -28 11 -40 -5 -3 -3 -25 -18 -50 -31 -25 -14 -90 -52 -145
-84 -55 -32 -116 -67 -135 -78 -19 -10 -51 -29 -70 -40 -71 -44 -96 -58 -122
-70 -16 -6 -28 -14 -28 -18 0 -4 -11 -10 -25 -13 -14 -4 -25 -11 -25 -16 0 -6
-4 -10 -10 -10 -5 0 -31 -13 -57 -29 -57 -35 -114 -67 -205 -118 -42 -23 -68
-45 -68 -55 0 -9 3 -18 8 -20 6 -2 44 -51 104 -133 4 -5 26 -34 48 -62 l40
-52 -22 -15 c-65 -41 -155 -93 -172 -99 -17 -7 -17 -9 6 -40 14 -17 61 -81
106 -141 l82 -109 -32 -22 c-18 -12 -63 -39 -100 -59 -38 -21 -68 -43 -68 -50
0 -7 9 -22 20 -34 21 -22 26 -42 11 -42 -5 0 -27 7 -50 15 -23 8 -44 14 -46
14 -21 0 -82 15 -92 24 -7 5 -13 7 -13 4 0 -3 -87 17 -192 45 -106 27 -204 51
-216 54 -13 3 -49 12 -80 20 -32 8 -68 17 -82 20 -14 3 -38 9 -55 14 -16 5
-50 14 -75 20 -25 6 -59 16 -76 21 -17 5 -40 9 -52 9 -11 0 -23 4 -27 9 -3 6
-15 8 -28 5 -28 -5 -107 -47 -107 -56 0 -5 -6 -8 -14 -8 -8 0 -21 -6 -28 -13
-7 -7 -28 -19 -46 -26 -17 -7 -32 -16 -32 -20 0 -3 -20 -15 -45 -26 -25 -11
-45 -23 -45 -27 0 -5 -4 -8 -8 -8 -7 0 -114 -59 -182 -100 -8 -5 -53 -32 -100
-59 -47 -27 -148 -85 -224 -130 -77 -44 -144 -82 -150 -84 -16 -6 -4 -14 29
-21 54 -9 90 -17 107 -22 9 -2 40 -9 70 -14 43 -8 214 -44 253 -53 26 -6 12
-24 -41 -55 -33 -18 -67 -35 -76 -39 -10 -3 -18 -9 -18 -14 0 -5 -4 -9 -9 -9
-5 0 -74 -37 -153 -83 -78 -46 -151 -88 -161 -93 -13 -8 9 -15 95 -33 62 -12
120 -24 128 -26 67 -15 170 -37 190 -40 33 -5 88 -23 73 -24 -6 -1 -18 -7 -25
-14 -7 -7 -24 -18 -38 -24 -39 -19 -121 -66 -167 -96 -24 -15 -44 -27 -47 -27
-2 0 -43 -24 -92 -53 -49 -29 -98 -56 -108 -60 -17 -7 -15 -21 2 -22 4 -1 16
-4 27 -7 11 -4 36 -9 55 -12 51 -8 84 -15 180 -36 47 -10 101 -21 120 -25 19
-4 47 -9 63 -12 26 -5 49 -23 29 -23 -6 0 -66 -32 -134 -71 -67 -39 -138 -80
-155 -90 -85 -49 -100 -58 -133 -75 -19 -11 -40 -25 -48 -31 -7 -7 -19 -14
-25 -14 -11 -1 40 -14 88 -23 11 -1 34 -6 50 -10 17 -3 39 -8 50 -10 11 -3 76
-17 145 -31 69 -15 135 -27 148 -27 22 0 22 -1 6 -19 -9 -11 -21 -19 -25 -19
-5 0 -32 -14 -61 -31 -65 -39 -78 -46 -256 -149 -133 -76 -151 -91 -119 -96
55 -8 87 -15 115 -23 18 -5 35 -10 37 -10 3 0 18 -2 33 -5 15 -4 41 -8 57 -11
17 -2 39 -6 50 -9 38 -9 210 -45 235 -50 14 -2 70 -14 125 -26 55 -12 111 -23
125 -25 14 -2 66 -13 115 -24 50 -11 101 -22 115 -25 14 -3 36 -7 50 -10 26
-6 157 -32 200 -40 14 -3 36 -7 50 -10 14 -3 41 -9 60 -13 19 -4 37 -8 40 -8
3 -1 23 -5 45 -10 22 -4 49 -10 60 -12 11 -2 31 -6 45 -9 14 -3 33 -7 42 -10
10 -3 30 -7 45 -10 29 -5 213 -43 248 -51 11 -2 54 -11 95 -19 41 -7 86 -16
100 -20 43 -10 114 -24 150 -30 19 -3 38 -8 41 -10 3 -2 19 -6 35 -8 16 -3 40
-8 54 -11 51 -12 76 -17 95 -20 11 -2 52 -10 90 -18 39 -9 82 -18 95 -21 14
-2 72 -14 130 -26 97 -20 131 -27 170 -34 8 -1 24 -5 35 -9 11 -4 36 -9 55
-12 57 -8 144 -25 160 -32 8 -3 27 -7 41 -8 29 -3 98 -33 117 -52 7 -7 17 -13
22 -13 4 0 37 -17 71 -38 35 -21 81 -46 102 -57 20 -11 37 -23 37 -27 0 -5 5
-8 10 -8 6 0 40 -18 76 -40 36 -22 68 -40 70 -40 6 0 218 -123 224 -130 3 -3
16 -11 30 -17 25 -12 39 -20 237 -136 62 -36 132 -77 155 -90 24 -14 80 -46
125 -72 l82 -47 28 19 c15 11 82 51 148 89 66 38 129 74 140 81 11 6 34 19 50
27 17 9 46 26 66 38 45 28 270 158 307 177 15 8 29 18 30 23 2 4 9 8 14 8 6 0
34 14 61 32 l50 32 -32 15 c-17 8 -31 18 -31 23 0 4 -4 8 -9 8 -4 0 -48 23
-97 51 -49 29 -105 61 -124 71 -55 31 -55 34 2 65 29 16 80 45 113 63 33 18
67 39 76 46 8 8 18 14 22 14 3 0 22 9 41 21 31 18 34 23 22 35 -8 8 -17 14
-20 14 -3 0 -65 35 -138 78 -74 43 -142 81 -152 85 -15 6 -16 10 -6 22 7 8 16
15 21 15 5 0 38 18 74 40 36 22 67 40 70 40 2 0 24 14 48 30 25 17 49 30 53
30 5 0 22 10 37 23 l29 23 -28 14 c-50 26 -299 171 -307 179 -4 4 5 14 20 22
16 7 68 38 118 68 49 29 96 56 105 60 20 9 90 52 90 56 0 3 -52 34 -135 81
-11 6 -36 20 -55 31 -19 11 -61 35 -94 53 l-58 33 38 23 c22 13 45 28 52 34 6
6 12 8 12 5 0 -4 14 3 30 15 27 19 35 21 60 10 17 -7 30 -15 30 -19 0 -4 12
-12 28 -18 15 -7 34 -17 42 -23 19 -12 484 -281 560 -323 30 -17 57 -34 58
-39 2 -4 8 -8 14 -8 5 0 42 -19 81 -42 40 -24 79 -46 87 -51 8 -4 38 -21 65
-37 28 -17 61 -36 75 -43 14 -6 27 -14 30 -17 3 -3 16 -11 29 -18 71 -40 99
-57 126 -73 17 -11 41 -24 55 -31 14 -7 27 -15 30 -18 3 -3 16 -11 31 -18 25
-13 59 3 317 155 67 40 309 180 367 213 171 98 235 135 235 140 0 7 -129 80
-141 80 -5 0 -9 4 -9 9 0 5 -12 14 -27 20 -16 6 -46 22 -68 36 -22 14 -53 32
-69 39 l-29 14 39 24 c21 13 46 28 54 31 8 4 33 18 55 32 22 14 51 31 65 38
14 6 30 16 35 20 6 5 28 18 49 30 21 12 39 26 38 31 0 5 -27 23 -59 41 -32 18
-82 46 -111 63 -29 18 -57 32 -62 32 -6 0 -10 3 -10 8 0 4 -18 16 -41 26 -22
11 -42 23 -44 26 -4 6 246 156 279 169 6 2 21 12 34 22 l23 17 -23 16 c-12 9
-28 16 -35 16 -7 0 -13 5 -13 10 0 6 -5 10 -10 10 -6 0 -27 11 -48 23 -37 24
-104 62 -174 100 -42 23 -38 31 33 67 24 13 46 25 49 29 3 3 30 19 60 35 30
16 57 32 60 35 3 3 26 17 53 31 26 13 47 27 47 30 0 3 -55 36 -121 74 -108 61
-119 70 -106 85 16 19 67 124 67 138 0 5 12 16 28 24 15 8 33 20 40 27 7 6 20
12 28 12 8 0 14 5 14 10 0 6 6 10 14 10 21 0 40 26 24 34 -7 3 -35 19 -63 35
-47 27 -50 33 -61 84 -6 30 -16 68 -23 84 -11 27 -11 51 2 83 31 77 31 232 2
314 -15 41 -16 54 -6 83 21 57 25 85 25 168 0 88 -7 133 -29 175 -8 15 -11 31
-7 35 4 3 7 10 8 13 0 4 4 15 9 25 6 15 10 14 31 -15 13 -18 32 -44 43 -58 11
-14 51 -68 90 -120 38 -52 73 -99 78 -105 4 -5 33 -44 63 -85 30 -41 58 -79
63 -85 18 -24 94 -124 112 -149 17 -24 56 -76 82 -111 8 -10 55 -74 135 -182
24 -32 45 -60 48 -63 3 -3 17 -21 30 -40 13 -19 29 -40 35 -47 5 -6 75 -100
155 -207 145 -197 343 -462 357 -481 4 -5 41 -54 81 -107 40 -54 78 -98 83
-98 13 0 97 48 122 68 9 8 17 11 17 6 0 -5 4 -4 8 1 4 6 21 18 37 28 54 32
196 112 223 126 15 8 29 17 32 20 3 3 23 15 45 26 22 11 46 26 53 32 7 7 20
13 28 13 8 0 14 5 14 10 0 6 4 10 9 10 5 0 55 27 111 60 56 33 106 60 111 60
5 0 9 4 9 8 0 4 12 13 28 19 43 19 105 58 109 69 2 6 -6 21 -17 35 -22 26 -20
25 -70 89 -19 25 -47 59 -62 75 -16 17 -31 38 -34 48 -3 9 -10 17 -16 17 -20
0 11 26 52 45 22 10 40 22 40 27 0 5 4 7 9 4 5 -3 14 1 21 9 7 8 19 15 26 15
8 0 14 5 14 10 0 6 6 10 14 10 16 0 40 27 28 32 -5 1 -37 39 -71 83 -35 44
-67 82 -71 85 -3 3 -9 12 -12 21 -5 12 28 36 140 100 80 46 170 99 201 117 31
18 64 35 74 39 9 3 17 9 17 14 0 5 5 9 11 9 10 0 78 38 171 97 20 12 43 24 50
25 7 2 20 10 29 18 10 8 35 24 56 35 21 11 63 34 93 52 62 37 72 39 132 19 38
-12 263 -74 292 -81 6 -1 18 -4 26 -8 21 -7 232 -66 256 -70 10 -2 26 -7 34
-10 8 -4 24 -8 35 -10 11 -2 27 -6 35 -9 82 -29 88 -29 167 18 41 24 79 44 84
44 5 0 9 4 9 8 0 4 12 13 28 19 28 12 103 54 112 63 5 5 23 15 88 51 20 11 51
29 67 40 17 10 37 22 45 26 8 4 35 19 60 34 52 31 86 51 241 138 63 36 116 68
119 72 3 3 15 9 28 13 46 15 31 22 -168 71 -8 2 -71 17 -139 34 -118 29 -140
36 -130 45 13 11 202 116 210 116 5 0 9 4 9 9 0 5 12 14 28 20 27 11 63 31 72
42 3 3 21 13 40 22 45 21 92 53 91 61 -1 3 -2 6 -3 6 -2 0 -28 7 -58 16 -30 9
-64 18 -75 20 -35 7 -59 13 -94 23 -19 6 -37 9 -39 6 -3 -3 -10 -1 -16 4 -6 5
-46 17 -89 26 -42 9 -79 20 -82 24 -2 4 18 18 45 32 27 13 50 27 50 32 0 4 7
7 15 7 8 0 15 4 15 10 0 5 3 9 8 8 7 -2 35 14 222 123 41 24 83 47 93 51 9 4
17 13 17 19 0 7 -3 10 -6 6 -3 -3 -23 1 -45 8 -22 8 -43 15 -47 15 -18 2 -61
12 -107 25 -27 8 -61 16 -75 19 -14 2 -45 9 -70 16 -25 7 -52 14 -60 15 -8 2
-15 4 -15 5 0 1 -8 3 -18 5 -11 2 -21 5 -23 7 -2 3 58 40 134 84 75 43 149 86
163 94 14 8 58 33 97 55 40 22 72 43 72 47 0 3 -21 12 -47 18 -27 6 -64 15
-83 20 -19 4 -44 10 -55 13 -43 10 -271 68 -280 71 -5 1 8 13 30 25 46 26 69
39 269 155 82 47 153 86 158 86 5 0 8 5 6 11 -2 6 -7 10 -11 10 -3 0 -21 5
-39 10 -39 12 -64 18 -98 25 -14 3 -43 10 -65 16 -22 6 -46 12 -53 14 -37 7
-120 28 -142 35 -14 5 -36 11 -50 14 -14 2 -52 12 -85 20 -33 9 -67 17 -75 19
-8 2 -70 18 -138 35 -68 17 -131 33 -140 34 -9 2 -35 9 -57 15 -22 6 -51 13
-65 16 -14 3 -232 58 -485 121 -253 64 -467 118 -475 120 -8 2 -80 20 -160 40
-80 20 -152 39 -160 41 -8 2 -46 11 -85 19 -38 9 -77 19 -85 22 -8 3 -22 7
-31 9 -8 2 -116 29 -240 59 -123 31 -231 58 -239 60 -8 1 -35 9 -60 16 -25 7
-53 14 -63 16 -10 2 -73 17 -140 34 -67 17 -129 32 -137 34 -8 2 -124 31 -257
64 -134 34 -251 63 -260 65 -10 1 -25 6 -33 9 -12 4 -179 46 -250 62 -8 2 -78
20 -155 40 -77 19 -151 38 -165 41 -14 3 -59 14 -100 25 -41 11 -84 22 -95 24
-11 3 -75 18 -142 35 -142 35 -130 33 -139 19z m-4217 -2981 c21 -12 40 -25
43 -28 5 -5 23 -15 137 -76 l53 -28 -66 -38 c-36 -21 -67 -38 -69 -38 -2 0
-119 183 -139 218 -10 17 -3 15 41 -10z"/>
</g>
</svg>
