<svg width="35" height="36" viewBox="0 0 35 36" fill="none" xmlns="http://www.w3.org/2000/svg">
<g opacity="0.7">
<path d="M17.5 0.270508C7.83504 0.270508 0 8.10555 0 17.7705C0 27.4355 7.83504 35.2705 17.5 35.2705C27.165 35.2705 35 27.4355 35 17.7705C35 8.10555 27.165 0.270508 17.5 0.270508ZM28.2244 28.4949C25.5652 31.1462 22.0141 32.7125 18.2631 32.8886C14.5121 33.0647 10.8299 31.838 7.93401 29.4474C5.03809 27.0569 3.1359 23.6739 2.59808 19.9575C2.06027 16.241 2.92535 12.4575 5.02477 9.34409C7.12419 6.23067 10.3076 4.01039 13.9546 3.11588C17.6016 2.22137 21.451 2.7167 24.7528 4.50536C28.0546 6.29402 30.5721 9.24788 31.815 12.7914C33.0578 16.3349 32.9369 20.2141 31.4757 23.6733C30.7142 25.4758 29.61 27.1133 28.2244 28.4949Z" fill="white"/>
<path d="M12.8385 13.6875H9.92188V16.6042H12.8385V13.6875Z" fill="white"/>
<path d="M25.0885 13.6875H22.1719V16.6042H25.0885V13.6875Z" fill="white"/>
<path d="M23.4974 21.5038C23.0461 22.6427 22.2621 23.6191 21.2478 24.3058C20.2334 24.9926 19.0356 25.3578 17.8107 25.3538H17.1836C15.9586 25.3578 14.7608 24.9926 13.7464 24.3059C12.732 23.6191 11.948 22.6427 11.4967 21.5038L11.4034 21.2705H8.89062L9.33046 22.3702C9.95826 23.9397 11.042 25.2851 12.4417 26.2328C13.8415 27.1806 15.4932 27.6871 17.1836 27.6872H17.8107C19.5011 27.6871 21.1527 27.1806 22.5525 26.2328C23.9523 25.2851 25.036 23.9397 25.6638 22.3702L26.1036 21.2705H23.5906L23.4974 21.5038Z" fill="white"/>
</g>
</svg>
