<svg width="35" height="35" viewBox="0 0 35 35" fill="none" xmlns="http://www.w3.org/2000/svg">
<g opacity="0.7">
<path d="M17.5 0C7.83504 0 0 7.83504 0 17.5C0 27.165 7.83504 35 17.5 35C27.165 35 35 27.165 35 17.5C35 7.83504 27.165 0 17.5 0ZM28.2244 28.2244C25.5652 30.8757 22.0141 32.442 18.2631 32.6181C14.5121 32.7942 10.8299 31.5675 7.93401 29.1769C5.03809 26.7864 3.1359 23.4034 2.59808 19.6869C2.06027 15.9705 2.92535 12.187 5.02477 9.07358C7.12419 5.96016 10.3076 3.73989 13.9546 2.84537C17.6016 1.95086 21.451 2.44619 24.7528 4.23485C28.0546 6.02351 30.5721 8.97737 31.815 12.5209C33.0578 16.0644 32.9369 19.9436 31.4757 23.4028C30.7142 25.2053 29.61 26.8428 28.2244 28.2244Z" fill="white"/>
<path d="M17.5052 26.8333C19.5164 26.8333 21.4453 26.0344 22.8674 24.6122C24.2896 23.1901 25.0885 21.2612 25.0885 19.25H9.92188C9.92188 21.2612 10.7208 23.1901 12.143 24.6122C13.5651 26.0344 15.494 26.8333 17.5052 26.8333Z" fill="white"/>
<path d="M13.8359 15.4795L15.3297 13.687L11.0828 10.1479L6.83594 13.687L8.32971 15.4795L11.0828 13.1852L13.8359 15.4795Z" fill="white"/>
<path d="M19.6719 13.687L21.1656 15.4795L23.9188 13.1852L26.6719 15.4795L28.1656 13.687L23.9188 10.1479L19.6719 13.687Z" fill="white"/>
</g>
</svg>
